M48
; DRILL file {KiCad 8.0.1} date 2024-06-17T09:25:19-0400
; FORMAT={-:-/ absolute / inch / decimal}
; #@! TF.CreationDate,2024-06-17T09:25:19-04:00
; #@! TF.GenerationSoftware,Kicad,Pcbnew,8.0.1
; #@! TF.FileFunction,Plated,1,2,PTH
FMAT,2
INCH
; #@! TA.AperFunction,Plated,PTH,ViaDrill
T1C0.0118
; #@! TA.AperFunction,Plated,PTH,ComponentDrill
T2C0.0197
; #@! TA.AperFunction,Plated,PTH,ComponentDrill
T3C0.0315
; #@! TA.AperFunction,Plated,PTH,ComponentDrill
T4C0.0394
; #@! TA.AperFunction,Plated,PTH,ComponentDrill
T5C0.0512
%
G90
G05
T1
X5.2003Y-3.7382
X5.2546Y-3.2352
X5.3036Y-3.2092
X5.5441Y-2.6783
T2
X7.08Y-2.32
X7.08Y-2.3594
T3
X3.46Y-3.69
X3.46Y-3.79
X3.46Y-3.89
X3.46Y-3.99
X3.46Y-4.09
X3.46Y-4.19
X3.46Y-4.29
X3.47Y-2.2698
X3.47Y-2.3698
X3.47Y-2.4698
X3.47Y-2.5698
X3.47Y-2.6698
X3.47Y-2.7698
X3.47Y-2.8698
X3.6808Y-2.07
X3.6808Y-3.47
X3.76Y-3.69
X3.76Y-3.79
X3.76Y-3.89
X3.76Y-3.99
X3.76Y-4.09
X3.76Y-4.19
X3.76Y-4.29
X3.77Y-2.2698
X3.77Y-2.3698
X3.77Y-2.4698
X3.77Y-2.5698
X3.77Y-2.6698
X3.77Y-2.7698
X3.77Y-2.8698
X3.7792Y-2.07
X3.7792Y-3.47
X4.0984Y-2.2806
X4.0984Y-2.3806
X4.0984Y-2.4806
X4.0984Y-2.5806
X4.0984Y-2.6806
X4.0984Y-2.7806
X4.0984Y-2.8806
X4.0984Y-2.9806
X4.0992Y-3.67
X4.0992Y-3.77
X4.0992Y-3.87
X4.0992Y-3.97
X4.0992Y-4.07
X4.0992Y-4.17
X4.0992Y-4.27
X4.0992Y-4.37
X4.3584Y-2.0706
X4.4192Y-3.47
X4.4569Y-2.0706
X4.4984Y-2.2806
X4.4984Y-2.3806
X4.4984Y-2.4806
X4.4984Y-2.5806
X4.4984Y-2.6806
X4.4984Y-2.7806
X4.4984Y-2.8806
X4.4984Y-2.9806
X4.4992Y-3.67
X4.4992Y-3.77
X4.4992Y-3.87
X4.4992Y-3.97
X4.4992Y-4.07
X4.4992Y-4.17
X4.4992Y-4.27
X4.4992Y-4.37
X4.5176Y-3.47
X4.8428Y-3.6583
X4.8428Y-3.7583
X4.8428Y-3.8583
X4.8428Y-3.9583
X4.8428Y-4.0583
X4.8428Y-4.1583
X4.8428Y-4.2583
X4.8428Y-4.3583
X4.8428Y-4.4583
X4.8428Y-4.5583
X4.8528Y-2.2783
X4.8528Y-2.3783
X4.8528Y-2.4783
X4.8528Y-2.5783
X4.8528Y-2.6783
X4.8528Y-2.7783
X4.8528Y-2.8783
X4.8528Y-2.9783
X4.8528Y-3.0783
X4.8528Y-3.1783
X5.0344Y-2.0883
X5.0728Y-3.4583
X5.1328Y-2.0883
X5.1428Y-3.6583
X5.1428Y-3.7583
X5.1428Y-3.8583
X5.1428Y-3.9583
X5.1428Y-4.0583
X5.1428Y-4.1583
X5.1428Y-4.2583
X5.1428Y-4.3583
X5.1428Y-4.4583
X5.1428Y-4.5583
X5.1528Y-2.2783
X5.1528Y-2.3783
X5.1528Y-2.4783
X5.1528Y-2.5783
X5.1528Y-2.6783
X5.1528Y-2.7783
X5.1528Y-2.8783
X5.1528Y-2.9783
X5.1528Y-3.0783
X5.1528Y-3.1783
X5.1712Y-3.4583
X5.75Y-3.5961
X5.75Y-3.7556
X5.75Y-3.915
X5.76Y-2.0294
X5.76Y-2.1889
X5.76Y-2.3483
X5.76Y-2.5078
X5.76Y-2.6672
X5.76Y-2.8267
X5.76Y-2.9861
X5.76Y-3.1456
X5.76Y-4.0772
X5.76Y-4.2367
X5.76Y-4.3961
X5.76Y-4.5556
X5.76Y-4.715
X6.05Y-3.5961
X6.05Y-3.7556
X6.05Y-3.915
X6.06Y-2.0294
X6.06Y-2.1889
X6.06Y-2.3483
X6.06Y-2.5078
X6.06Y-2.6672
X6.06Y-2.8267
X6.06Y-2.9861
X6.06Y-3.1456
X6.06Y-4.0772
X6.06Y-4.2367
X6.06Y-4.3961
X6.06Y-4.5556
X6.06Y-4.715
X6.39Y-2.0383
X6.39Y-2.1978
X6.39Y-2.3572
X6.39Y-2.5167
X6.39Y-2.6761
X6.39Y-2.8356
X6.39Y-2.9872
X6.39Y-3.1467
X6.39Y-3.6178
X6.39Y-3.76
X6.39Y-3.9194
X6.39Y-4.0789
X6.39Y-4.2383
X6.39Y-4.3978
X6.39Y-4.5572
X6.39Y-4.7167
X6.69Y-2.0383
X6.69Y-2.1978
X6.69Y-2.3572
X6.69Y-2.5167
X6.69Y-2.6761
X6.69Y-2.8356
X6.69Y-2.9872
X6.69Y-3.1467
X6.69Y-3.6178
X6.69Y-3.76
X6.69Y-3.9194
X6.69Y-4.0789
X6.69Y-4.2383
X6.69Y-4.3978
X6.69Y-4.5572
X6.69Y-4.7167
T4
X2.99Y-2.22
X2.99Y-2.32
X2.99Y-2.42
X2.99Y-2.52
X2.99Y-2.62
X2.99Y-2.72
X2.99Y-2.82
X2.99Y-2.92
X2.99Y-3.02
X2.99Y-3.12
X2.99Y-3.22
X2.99Y-3.32
X2.99Y-3.42
X2.99Y-3.52
X2.99Y-3.62
X2.99Y-3.72
X2.99Y-3.82
X2.99Y-3.92
X2.99Y-4.02
X2.99Y-4.12
X2.99Y-4.22
X2.99Y-4.32
X2.99Y-4.42
X2.99Y-4.52
X2.99Y-4.62
X3.09Y-2.22
X3.09Y-2.32
X3.09Y-2.42
X3.09Y-2.52
X3.09Y-2.62
X3.09Y-2.72
X3.09Y-2.82
X3.09Y-2.92
X3.09Y-3.02
X3.09Y-3.12
X3.09Y-3.22
X3.09Y-3.32
X3.09Y-3.42
X3.09Y-3.52
X3.09Y-3.62
X3.09Y-3.72
X3.09Y-3.82
X3.09Y-3.92
X3.09Y-4.02
X3.09Y-4.12
X3.09Y-4.22
X3.09Y-4.32
X3.09Y-4.42
X3.09Y-4.52
X3.09Y-4.62
T4
G00X7.0806Y-3.09
M15
G01X7.1396Y-3.09
M16
G05
G00X7.0892Y-3.69
M15
G01X7.1482Y-3.69
M16
G05
T5
G00X7.4526Y-3.1136
M15
G01X7.4526Y-3.0664
M16
G05
G00X7.4612Y-3.7136
M15
G01X7.4612Y-3.6664
M16
G05
M30
