%TF.GenerationSoftware,KiCad,Pcbnew,8.0.1*%
%TF.CreationDate,2024-06-17T09:25:23-04:00*%
%TF.ProjectId,lbporch,6c62706f-7263-4682-9e6b-696361645f70,rev?*%
%TF.SameCoordinates,Original*%
%TF.FileFunction,Copper,L1,Top*%
%TF.FilePolarity,Positive*%
%FSLAX46Y46*%
G04 Gerber Fmt 4.6, Leading zero omitted, Abs format (unit mm)*
G04 Created by KiCad (PCBNEW 8.0.1) date 2024-06-17 09:25:23*
%MOMM*%
%LPD*%
G01*
G04 APERTURE LIST*
%TA.AperFunction,ComponentPad*%
%ADD10R,1.600000X1.600000*%
%TD*%
%TA.AperFunction,ComponentPad*%
%ADD11O,1.600000X1.600000*%
%TD*%
%TA.AperFunction,ComponentPad*%
%ADD12R,0.850000X0.850000*%
%TD*%
%TA.AperFunction,ComponentPad*%
%ADD13O,0.850000X0.850000*%
%TD*%
%TA.AperFunction,ComponentPad*%
%ADD14C,1.600000*%
%TD*%
%TA.AperFunction,ComponentPad*%
%ADD15O,2.100000X4.200000*%
%TD*%
%TA.AperFunction,ComponentPad*%
%ADD16O,3.600000X1.800000*%
%TD*%
%TA.AperFunction,ComponentPad*%
%ADD17R,1.700000X1.700000*%
%TD*%
%TA.AperFunction,ComponentPad*%
%ADD18O,1.700000X1.700000*%
%TD*%
%TA.AperFunction,ViaPad*%
%ADD19C,0.600000*%
%TD*%
%TA.AperFunction,Conductor*%
%ADD20C,0.200000*%
%TD*%
G04 APERTURE END LIST*
D10*
%TO.P,U2,1*%
%TO.N,/A1*%
X87884000Y-93726000D03*
D11*
%TO.P,U2,2*%
X87884000Y-96266000D03*
%TO.P,U2,3*%
%TO.N,/A2*%
X87884000Y-98806000D03*
%TO.P,U2,4*%
X87884000Y-101346000D03*
%TO.P,U2,5*%
%TO.N,/A4*%
X87884000Y-103886000D03*
%TO.P,U2,6*%
%TO.N,/A5*%
X87884000Y-106426000D03*
%TO.P,U2,7,GND*%
%TO.N,GND*%
X87884000Y-108966000D03*
%TO.P,U2,8*%
%TO.N,Net-(U6-E2)*%
X95504000Y-108966000D03*
%TO.P,U2,9*%
%TO.N,N/C*%
X95504000Y-106426000D03*
%TO.P,U2,10*%
X95504000Y-103886000D03*
%TO.P,U2,11*%
%TO.N,/A5*%
X95504000Y-101346000D03*
%TO.P,U2,12*%
X95504000Y-98806000D03*
%TO.P,U2,13*%
%TO.N,N/C*%
X95504000Y-96266000D03*
%TO.P,U2,14,Vcc*%
%TO.N,+5V*%
X95504000Y-93726000D03*
%TD*%
D12*
%TO.P,J4,1,Pin_1*%
%TO.N,GND*%
X179832000Y-58928000D03*
D13*
%TO.P,J4,2,Pin_2*%
%TO.N,+5V*%
X179832000Y-59928000D03*
%TD*%
D10*
%TO.P,U3,1,OE*%
%TO.N,GND*%
X123261700Y-57870000D03*
D11*
%TO.P,U3,2,O0*%
%TO.N,Net-(U3-O0)*%
X123261700Y-60410000D03*
%TO.P,U3,3,D0*%
%TO.N,/D0*%
X123261700Y-62950000D03*
%TO.P,U3,4,D1*%
%TO.N,/D1*%
X123261700Y-65490000D03*
%TO.P,U3,5,O1*%
%TO.N,Net-(U3-O1)*%
X123261700Y-68030000D03*
%TO.P,U3,6,O2*%
%TO.N,Net-(U3-O2)*%
X123261700Y-70570000D03*
%TO.P,U3,7,D2*%
%TO.N,/D2*%
X123261700Y-73110000D03*
%TO.P,U3,8,D3*%
%TO.N,/D3*%
X123261700Y-75650000D03*
%TO.P,U3,9,O3*%
%TO.N,Net-(U3-O3)*%
X123261700Y-78190000D03*
%TO.P,U3,10,GND*%
%TO.N,GND*%
X123261700Y-80730000D03*
%TO.P,U3,11,Cp*%
%TO.N,Net-(U3-Cp)*%
X130881700Y-80730000D03*
%TO.P,U3,12,O4*%
%TO.N,Net-(U3-O4)*%
X130881700Y-78190000D03*
%TO.P,U3,13,D4*%
%TO.N,/D4*%
X130881700Y-75650000D03*
%TO.P,U3,14,D5*%
%TO.N,/D5*%
X130881700Y-73110000D03*
%TO.P,U3,15,O5*%
%TO.N,Net-(U3-O5)*%
X130881700Y-70570000D03*
%TO.P,U3,16,O6*%
%TO.N,Net-(U3-O6)*%
X130881700Y-68030000D03*
%TO.P,U3,17,D6*%
%TO.N,/D6*%
X130881700Y-65490000D03*
%TO.P,U3,18,D7*%
%TO.N,/D7*%
X130881700Y-62950000D03*
%TO.P,U3,19,O7*%
%TO.N,Net-(U3-O7)*%
X130881700Y-60410000D03*
%TO.P,U3,20,VCC*%
%TO.N,+5V*%
X130881700Y-57870000D03*
%TD*%
D14*
%TO.P,C6,1*%
%TO.N,GND*%
X93492000Y-52578000D03*
%TO.P,C6,2*%
%TO.N,+5V*%
X95992000Y-52578000D03*
%TD*%
%TO.P,R24,1*%
%TO.N,Net-(R23-Pad2)*%
X162306000Y-79926000D03*
D11*
%TO.P,R24,2*%
%TO.N,Net-(J2-In)*%
X169926000Y-79926000D03*
%TD*%
D14*
%TO.P,R17,1*%
%TO.N,GND*%
X162306000Y-51774000D03*
D11*
%TO.P,R17,2*%
%TO.N,Net-(R1-Pad1)*%
X169926000Y-51774000D03*
%TD*%
D14*
%TO.P,R32,1*%
%TO.N,Net-(R15-Pad1)*%
X162306000Y-119804000D03*
D11*
%TO.P,R32,2*%
%TO.N,Net-(J3-In)*%
X169926000Y-119804000D03*
%TD*%
D14*
%TO.P,R18,1*%
%TO.N,Net-(R1-Pad1)*%
X162306000Y-55824000D03*
D11*
%TO.P,R18,2*%
%TO.N,Net-(R18-Pad2)*%
X169926000Y-55824000D03*
%TD*%
D14*
%TO.P,C4,1*%
%TO.N,GND*%
X112248000Y-88138000D03*
%TO.P,C4,2*%
%TO.N,+5V*%
X114748000Y-88138000D03*
%TD*%
D10*
%TO.P,U1,1*%
%TO.N,/A1*%
X88138000Y-57653000D03*
D11*
%TO.P,U1,2*%
X88138000Y-60193000D03*
%TO.P,U1,3*%
%TO.N,/A2*%
X88138000Y-62733000D03*
%TO.P,U1,4*%
X88138000Y-65273000D03*
%TO.P,U1,5*%
%TO.N,/A4*%
X88138000Y-67813000D03*
%TO.P,U1,6*%
%TO.N,/A5*%
X88138000Y-70353000D03*
%TO.P,U1,7,GND*%
%TO.N,GND*%
X88138000Y-72893000D03*
%TO.P,U1,8*%
%TO.N,Net-(U5-E2)*%
X95758000Y-72893000D03*
%TO.P,U1,9*%
%TO.N,N/C*%
X95758000Y-70353000D03*
%TO.P,U1,10*%
X95758000Y-67813000D03*
%TO.P,U1,11*%
%TO.N,/A5*%
X95758000Y-65273000D03*
%TO.P,U1,12*%
X95758000Y-62733000D03*
%TO.P,U1,13*%
%TO.N,N/C*%
X95758000Y-60193000D03*
%TO.P,U1,14,Vcc*%
%TO.N,+5V*%
X95758000Y-57653000D03*
%TD*%
D14*
%TO.P,R26,1*%
%TO.N,Net-(R25-Pad2)*%
X162306000Y-95504000D03*
D11*
%TO.P,R26,2*%
%TO.N,Net-(R10-Pad1)*%
X169926000Y-95504000D03*
%TD*%
D14*
%TO.P,R28,1*%
%TO.N,Net-(R11-Pad1)*%
X162306000Y-103604000D03*
D11*
%TO.P,R28,2*%
%TO.N,Net-(R12-Pad1)*%
X169926000Y-103604000D03*
%TD*%
D14*
%TO.P,R1,1*%
%TO.N,Net-(R1-Pad1)*%
X146304000Y-51548000D03*
D11*
%TO.P,R1,2*%
%TO.N,Net-(U3-O0)*%
X153924000Y-51548000D03*
%TD*%
D14*
%TO.P,R25,1*%
%TO.N,GND*%
X162306000Y-91892000D03*
D11*
%TO.P,R25,2*%
%TO.N,Net-(R25-Pad2)*%
X169926000Y-91892000D03*
%TD*%
D14*
%TO.P,C3,1*%
%TO.N,GND*%
X128849700Y-87842000D03*
%TO.P,C3,2*%
%TO.N,+5V*%
X131349700Y-87842000D03*
%TD*%
%TO.P,R29,1*%
%TO.N,Net-(R12-Pad1)*%
X162306000Y-107654000D03*
D11*
%TO.P,R29,2*%
%TO.N,Net-(R13-Pad1)*%
X169926000Y-107654000D03*
%TD*%
D14*
%TO.P,R13,1*%
%TO.N,Net-(R13-Pad1)*%
X146304000Y-107612000D03*
D11*
%TO.P,R13,2*%
%TO.N,Net-(U4-O4)*%
X153924000Y-107612000D03*
%TD*%
D14*
%TO.P,R20,1*%
%TO.N,Net-(R19-Pad2)*%
X162306000Y-63924000D03*
D11*
%TO.P,R20,2*%
%TO.N,Net-(R20-Pad2)*%
X169926000Y-63924000D03*
%TD*%
D10*
%TO.P,U5,1,A0*%
%TO.N,/A0*%
X104100000Y-57927000D03*
D11*
%TO.P,U5,2,A1*%
%TO.N,/A2*%
X104100000Y-60467000D03*
%TO.P,U5,3,A2*%
%TO.N,/A7*%
X104100000Y-63007000D03*
%TO.P,U5,4,E1*%
%TO.N,/XOUT*%
X104100000Y-65547000D03*
%TO.P,U5,5,E2*%
%TO.N,Net-(U5-E2)*%
X104100000Y-68087000D03*
%TO.P,U5,6,E3*%
%TO.N,unconnected-(U5-E3-Pad6)*%
X104100000Y-70627000D03*
%TO.P,U5,7,O7*%
%TO.N,unconnected-(U5-O7-Pad7)*%
X104100000Y-73167000D03*
%TO.P,U5,8,GND*%
%TO.N,GND*%
X104100000Y-75707000D03*
%TO.P,U5,9,O6*%
%TO.N,unconnected-(U5-O6-Pad9)*%
X114260000Y-75707000D03*
%TO.P,U5,10,O5*%
%TO.N,unconnected-(U5-O5-Pad10)*%
X114260000Y-73167000D03*
%TO.P,U5,11,O4*%
%TO.N,unconnected-(U5-O4-Pad11)*%
X114260000Y-70627000D03*
%TO.P,U5,12,O3*%
%TO.N,unconnected-(U5-O3-Pad12)*%
X114260000Y-68087000D03*
%TO.P,U5,13,O2*%
%TO.N,unconnected-(U5-O2-Pad13)*%
X114260000Y-65547000D03*
%TO.P,U5,14,O1*%
%TO.N,unconnected-(U5-O1-Pad14)*%
X114260000Y-63007000D03*
%TO.P,U5,15,O0*%
%TO.N,Net-(U3-Cp)*%
X114260000Y-60467000D03*
%TO.P,U5,16,VCC*%
%TO.N,+5V*%
X114260000Y-57927000D03*
%TD*%
D14*
%TO.P,R22,1*%
%TO.N,Net-(R21-Pad2)*%
X162306000Y-72024000D03*
D11*
%TO.P,R22,2*%
%TO.N,Net-(R22-Pad2)*%
X169926000Y-72024000D03*
%TD*%
D14*
%TO.P,R31,1*%
%TO.N,Net-(R14-Pad1)*%
X162306000Y-115754000D03*
D11*
%TO.P,R31,2*%
%TO.N,Net-(R15-Pad1)*%
X169926000Y-115754000D03*
%TD*%
D14*
%TO.P,R4,1*%
%TO.N,Net-(R20-Pad2)*%
X146304000Y-63698000D03*
D11*
%TO.P,R4,2*%
%TO.N,Net-(U3-O3)*%
X153924000Y-63698000D03*
%TD*%
D15*
%TO.P,J3,1,In*%
%TO.N,Net-(J3-In)*%
X189515000Y-93726000D03*
D16*
%TO.P,J3,2,Ext*%
%TO.N,GND*%
X180815000Y-93726000D03*
%TD*%
D14*
%TO.P,R14,1*%
%TO.N,Net-(R14-Pad1)*%
X146304000Y-111662000D03*
D11*
%TO.P,R14,2*%
%TO.N,Net-(U4-O5)*%
X153924000Y-111662000D03*
%TD*%
D14*
%TO.P,R16,1*%
%TO.N,Net-(J3-In)*%
X146304000Y-119762000D03*
D11*
%TO.P,R16,2*%
%TO.N,Net-(U4-O7)*%
X153924000Y-119762000D03*
%TD*%
D10*
%TO.P,U6,1,A0*%
%TO.N,/A0*%
X104120000Y-93218000D03*
D11*
%TO.P,U6,2,A1*%
%TO.N,/A3*%
X104120000Y-95758000D03*
%TO.P,U6,3,A2*%
%TO.N,/A7*%
X104120000Y-98298000D03*
%TO.P,U6,4,E1*%
%TO.N,/XOUT*%
X104120000Y-100838000D03*
%TO.P,U6,5,E2*%
%TO.N,Net-(U6-E2)*%
X104120000Y-103378000D03*
%TO.P,U6,6,E3*%
%TO.N,unconnected-(U6-E3-Pad6)*%
X104120000Y-105918000D03*
%TO.P,U6,7,O7*%
%TO.N,unconnected-(U6-O7-Pad7)*%
X104120000Y-108458000D03*
%TO.P,U6,8,GND*%
%TO.N,GND*%
X104120000Y-110998000D03*
%TO.P,U6,9,O6*%
%TO.N,unconnected-(U6-O6-Pad9)*%
X114280000Y-110998000D03*
%TO.P,U6,10,O5*%
%TO.N,unconnected-(U6-O5-Pad10)*%
X114280000Y-108458000D03*
%TO.P,U6,11,O4*%
%TO.N,unconnected-(U6-O4-Pad11)*%
X114280000Y-105918000D03*
%TO.P,U6,12,O3*%
%TO.N,unconnected-(U6-O3-Pad12)*%
X114280000Y-103378000D03*
%TO.P,U6,13,O2*%
%TO.N,unconnected-(U6-O2-Pad13)*%
X114280000Y-100838000D03*
%TO.P,U6,14,O1*%
%TO.N,unconnected-(U6-O1-Pad14)*%
X114280000Y-98298000D03*
%TO.P,U6,15,O0*%
%TO.N,Net-(U4-Cp)*%
X114280000Y-95758000D03*
%TO.P,U6,16,VCC*%
%TO.N,+5V*%
X114280000Y-93218000D03*
%TD*%
D14*
%TO.P,R10,1*%
%TO.N,Net-(R10-Pad1)*%
X146050000Y-95392000D03*
D11*
%TO.P,R10,2*%
%TO.N,Net-(U4-O1)*%
X153670000Y-95392000D03*
%TD*%
D14*
%TO.P,R30,1*%
%TO.N,Net-(R13-Pad1)*%
X162306000Y-111704000D03*
D11*
%TO.P,R30,2*%
%TO.N,Net-(R14-Pad1)*%
X169926000Y-111704000D03*
%TD*%
D14*
%TO.P,C2,1*%
%TO.N,GND*%
X127873700Y-53044000D03*
%TO.P,C2,2*%
%TO.N,+5V*%
X130373700Y-53044000D03*
%TD*%
%TO.P,R11,1*%
%TO.N,Net-(R11-Pad1)*%
X146050000Y-99442000D03*
D11*
%TO.P,R11,2*%
%TO.N,Net-(U4-O2)*%
X153670000Y-99442000D03*
%TD*%
D14*
%TO.P,R12,1*%
%TO.N,Net-(R12-Pad1)*%
X146304000Y-103562000D03*
D11*
%TO.P,R12,2*%
%TO.N,Net-(U4-O3)*%
X153924000Y-103562000D03*
%TD*%
D14*
%TO.P,R15,1*%
%TO.N,Net-(R15-Pad1)*%
X146304000Y-115712000D03*
D11*
%TO.P,R15,2*%
%TO.N,Net-(U4-O6)*%
X153924000Y-115712000D03*
%TD*%
D10*
%TO.P,U4,1,OE*%
%TO.N,GND*%
X123007700Y-92922000D03*
D11*
%TO.P,U4,2,O0*%
%TO.N,Net-(U4-O0)*%
X123007700Y-95462000D03*
%TO.P,U4,3,D0*%
%TO.N,/D0*%
X123007700Y-98002000D03*
%TO.P,U4,4,D1*%
%TO.N,/D1*%
X123007700Y-100542000D03*
%TO.P,U4,5,O1*%
%TO.N,Net-(U4-O1)*%
X123007700Y-103082000D03*
%TO.P,U4,6,O2*%
%TO.N,Net-(U4-O2)*%
X123007700Y-105622000D03*
%TO.P,U4,7,D2*%
%TO.N,/D2*%
X123007700Y-108162000D03*
%TO.P,U4,8,D3*%
%TO.N,/D3*%
X123007700Y-110702000D03*
%TO.P,U4,9,O3*%
%TO.N,Net-(U4-O3)*%
X123007700Y-113242000D03*
%TO.P,U4,10,GND*%
%TO.N,GND*%
X123007700Y-115782000D03*
%TO.P,U4,11,Cp*%
%TO.N,Net-(U4-Cp)*%
X130627700Y-115782000D03*
%TO.P,U4,12,O4*%
%TO.N,Net-(U4-O4)*%
X130627700Y-113242000D03*
%TO.P,U4,13,D4*%
%TO.N,/D4*%
X130627700Y-110702000D03*
%TO.P,U4,14,D5*%
%TO.N,/D5*%
X130627700Y-108162000D03*
%TO.P,U4,15,O5*%
%TO.N,Net-(U4-O5)*%
X130627700Y-105622000D03*
%TO.P,U4,16,O6*%
%TO.N,Net-(U4-O6)*%
X130627700Y-103082000D03*
%TO.P,U4,17,D6*%
%TO.N,/D6*%
X130627700Y-100542000D03*
%TO.P,U4,18,D7*%
%TO.N,/D7*%
X130627700Y-98002000D03*
%TO.P,U4,19,O7*%
%TO.N,Net-(U4-O7)*%
X130627700Y-95462000D03*
%TO.P,U4,20,VCC*%
%TO.N,+5V*%
X130627700Y-92922000D03*
%TD*%
D14*
%TO.P,R3,1*%
%TO.N,Net-(R19-Pad2)*%
X146304000Y-59648000D03*
D11*
%TO.P,R3,2*%
%TO.N,Net-(U3-O2)*%
X153924000Y-59648000D03*
%TD*%
D14*
%TO.P,R6,1*%
%TO.N,Net-(R22-Pad2)*%
X146304000Y-71798000D03*
D11*
%TO.P,R6,2*%
%TO.N,Net-(U3-O5)*%
X153924000Y-71798000D03*
%TD*%
D14*
%TO.P,R21,1*%
%TO.N,Net-(R20-Pad2)*%
X162306000Y-67974000D03*
D11*
%TO.P,R21,2*%
%TO.N,Net-(R21-Pad2)*%
X169926000Y-67974000D03*
%TD*%
D14*
%TO.P,R8,1*%
%TO.N,Net-(J2-In)*%
X146304000Y-79898000D03*
D11*
%TO.P,R8,2*%
%TO.N,Net-(U3-O7)*%
X153924000Y-79898000D03*
%TD*%
D14*
%TO.P,R27,1*%
%TO.N,Net-(R10-Pad1)*%
X162306000Y-99554000D03*
D11*
%TO.P,R27,2*%
%TO.N,Net-(R11-Pad1)*%
X169926000Y-99554000D03*
%TD*%
D14*
%TO.P,R19,1*%
%TO.N,Net-(R18-Pad2)*%
X162306000Y-59874000D03*
D11*
%TO.P,R19,2*%
%TO.N,Net-(R19-Pad2)*%
X169926000Y-59874000D03*
%TD*%
D14*
%TO.P,C5,1*%
%TO.N,GND*%
X93492000Y-88138000D03*
%TO.P,C5,2*%
%TO.N,+5V*%
X95992000Y-88138000D03*
%TD*%
%TO.P,R2,1*%
%TO.N,Net-(R18-Pad2)*%
X146304000Y-55598000D03*
D11*
%TO.P,R2,2*%
%TO.N,Net-(U3-O1)*%
X153924000Y-55598000D03*
%TD*%
D14*
%TO.P,R9,1*%
%TO.N,Net-(R25-Pad2)*%
X146050000Y-91342000D03*
D11*
%TO.P,R9,2*%
%TO.N,Net-(U4-O0)*%
X153670000Y-91342000D03*
%TD*%
D14*
%TO.P,R23,1*%
%TO.N,Net-(R22-Pad2)*%
X162306000Y-75876000D03*
D11*
%TO.P,R23,2*%
%TO.N,Net-(R23-Pad2)*%
X169926000Y-75876000D03*
%TD*%
D14*
%TO.P,R5,1*%
%TO.N,Net-(R21-Pad2)*%
X146304000Y-67748000D03*
D11*
%TO.P,R5,2*%
%TO.N,Net-(U3-O4)*%
X153924000Y-67748000D03*
%TD*%
D14*
%TO.P,R7,1*%
%TO.N,Net-(R23-Pad2)*%
X146304000Y-75848000D03*
D11*
%TO.P,R7,2*%
%TO.N,Net-(U3-O6)*%
X153924000Y-75848000D03*
%TD*%
D15*
%TO.P,J2,1,In*%
%TO.N,Net-(J2-In)*%
X189296000Y-78486000D03*
D16*
%TO.P,J2,2,Ext*%
%TO.N,GND*%
X180596000Y-78486000D03*
%TD*%
D14*
%TO.P,C1,1*%
%TO.N,GND*%
X110704000Y-52593000D03*
%TO.P,C1,2*%
%TO.N,+5V*%
X113204000Y-52593000D03*
%TD*%
D17*
%TO.P,J1,1,Pin_1*%
%TO.N,/D0*%
X78486000Y-56388000D03*
D18*
%TO.P,J1,2,Pin_2*%
%TO.N,GND*%
X75946000Y-56388000D03*
%TO.P,J1,3,Pin_3*%
%TO.N,/D1*%
X78486000Y-58928000D03*
%TO.P,J1,4,Pin_4*%
%TO.N,GND*%
X75946000Y-58928000D03*
%TO.P,J1,5,Pin_5*%
%TO.N,/D2*%
X78486000Y-61468000D03*
%TO.P,J1,6,Pin_6*%
%TO.N,GND*%
X75946000Y-61468000D03*
%TO.P,J1,7,Pin_7*%
%TO.N,/D3*%
X78486000Y-64008000D03*
%TO.P,J1,8,Pin_8*%
%TO.N,GND*%
X75946000Y-64008000D03*
%TO.P,J1,9,Pin_9*%
%TO.N,/D4*%
X78486000Y-66548000D03*
%TO.P,J1,10,Pin_10*%
%TO.N,GND*%
X75946000Y-66548000D03*
%TO.P,J1,11,Pin_11*%
%TO.N,/D5*%
X78486000Y-69088000D03*
%TO.P,J1,12,Pin_12*%
%TO.N,GND*%
X75946000Y-69088000D03*
%TO.P,J1,13,Pin_13*%
%TO.N,/D6*%
X78486000Y-71628000D03*
%TO.P,J1,14,Pin_14*%
%TO.N,GND*%
X75946000Y-71628000D03*
%TO.P,J1,15,Pin_15*%
%TO.N,/D7*%
X78486000Y-74168000D03*
%TO.P,J1,16,Pin_16*%
%TO.N,GND*%
X75946000Y-74168000D03*
%TO.P,J1,17,Pin_17*%
%TO.N,/A0*%
X78486000Y-76708000D03*
%TO.P,J1,18,Pin_18*%
%TO.N,GND*%
X75946000Y-76708000D03*
%TO.P,J1,19,Pin_19*%
%TO.N,/A1*%
X78486000Y-79248000D03*
%TO.P,J1,20,Pin_20*%
%TO.N,GND*%
X75946000Y-79248000D03*
%TO.P,J1,21,Pin_21*%
%TO.N,/A2*%
X78486000Y-81788000D03*
%TO.P,J1,22,Pin_22*%
%TO.N,GND*%
X75946000Y-81788000D03*
%TO.P,J1,23,Pin_23*%
%TO.N,/A3*%
X78486000Y-84328000D03*
%TO.P,J1,24,Pin_24*%
%TO.N,GND*%
X75946000Y-84328000D03*
%TO.P,J1,25,Pin_25*%
%TO.N,/A4*%
X78486000Y-86868000D03*
%TO.P,J1,26,Pin_26*%
%TO.N,GND*%
X75946000Y-86868000D03*
%TO.P,J1,27,Pin_27*%
%TO.N,/A5*%
X78486000Y-89408000D03*
%TO.P,J1,28,Pin_28*%
%TO.N,GND*%
X75946000Y-89408000D03*
%TO.P,J1,29,Pin_29*%
%TO.N,/A6*%
X78486000Y-91948000D03*
%TO.P,J1,30,Pin_30*%
%TO.N,GND*%
X75946000Y-91948000D03*
%TO.P,J1,31,Pin_31*%
%TO.N,/A7*%
X78486000Y-94488000D03*
%TO.P,J1,32,Pin_32*%
%TO.N,GND*%
X75946000Y-94488000D03*
%TO.P,J1,33,Pin_33*%
%TO.N,/XIN*%
X78486000Y-97028000D03*
%TO.P,J1,34,Pin_34*%
%TO.N,GND*%
X75946000Y-97028000D03*
%TO.P,J1,35,Pin_35*%
%TO.N,/XOUT*%
X78486000Y-99568000D03*
%TO.P,J1,36,Pin_36*%
%TO.N,GND*%
X75946000Y-99568000D03*
%TO.P,J1,37,Pin_37*%
%TO.N,/XRESET*%
X78486000Y-102108000D03*
%TO.P,J1,38,Pin_38*%
%TO.N,GND*%
X75946000Y-102108000D03*
%TO.P,J1,39,Pin_39*%
%TO.N,/XINT*%
X78486000Y-104648000D03*
%TO.P,J1,40,Pin_40*%
%TO.N,GND*%
X75946000Y-104648000D03*
%TO.P,J1,41,Pin_41*%
%TO.N,/XWAIT*%
X78486000Y-107188000D03*
%TO.P,J1,42,Pin_42*%
%TO.N,GND*%
X75946000Y-107188000D03*
%TO.P,J1,43,Pin_43*%
%TO.N,/EXTIOSEL*%
X78486000Y-109728000D03*
%TO.P,J1,44,Pin_44*%
%TO.N,GND*%
X75946000Y-109728000D03*
%TO.P,J1,45,Pin_45*%
%TO.N,unconnected-(J1-Pin_45-Pad45)*%
X78486000Y-112268000D03*
%TO.P,J1,46,Pin_46*%
%TO.N,GND*%
X75946000Y-112268000D03*
%TO.P,J1,47,Pin_47*%
%TO.N,/XMI*%
X78486000Y-114808000D03*
%TO.P,J1,48,Pin_48*%
%TO.N,GND*%
X75946000Y-114808000D03*
%TO.P,J1,49,Pin_49*%
%TO.N,/XIDRQ*%
X78486000Y-117348000D03*
%TO.P,J1,50,Pin_50*%
%TO.N,GND*%
X75946000Y-117348000D03*
%TD*%
D19*
%TO.N,Net-(U3-O6)*%
X140820000Y-68030000D03*
%TO.N,/D7*%
X134711000Y-81514200D03*
X132087000Y-94950900D03*
%TO.N,/D5*%
X133468000Y-82173800D03*
%TD*%
D20*
%TO.N,Net-(R15-Pad1)*%
X148329000Y-117737000D02*
X162306000Y-117737000D01*
X146304000Y-115712000D02*
X148329000Y-117737000D01*
X162306000Y-117737000D02*
X162306000Y-119804000D01*
X168824000Y-115754000D02*
X169926000Y-115754000D01*
X166841000Y-117737000D02*
X168824000Y-115754000D01*
X162306000Y-117737000D02*
X166841000Y-117737000D01*
%TO.N,Net-(R14-Pad1)*%
X155724000Y-115754000D02*
X162306000Y-115754000D01*
X151632000Y-111662000D02*
X155724000Y-115754000D01*
X146304000Y-111662000D02*
X151632000Y-111662000D01*
%TO.N,Net-(R13-Pad1)*%
X157069000Y-106467000D02*
X162306000Y-111704000D01*
X153269000Y-106467000D02*
X157069000Y-106467000D01*
X152124000Y-107612000D02*
X153269000Y-106467000D01*
X146304000Y-107612000D02*
X152124000Y-107612000D01*
X164774000Y-111704000D02*
X162306000Y-111704000D01*
X168824000Y-107654000D02*
X164774000Y-111704000D01*
X169926000Y-107654000D02*
X168824000Y-107654000D01*
%TO.N,Net-(U4-O4)*%
X131729000Y-113242000D02*
X130628000Y-113242000D01*
X135139000Y-109832000D02*
X131729000Y-113242000D01*
X150602000Y-109832000D02*
X135139000Y-109832000D01*
X152822000Y-107612000D02*
X150602000Y-109832000D01*
X153924000Y-107612000D02*
X152822000Y-107612000D01*
X130628000Y-113242000D02*
X130627700Y-113242000D01*
%TO.N,Net-(U4-O3)*%
X152822000Y-103562000D02*
X153924000Y-103562000D01*
X150317000Y-106067000D02*
X152822000Y-103562000D01*
X135093000Y-106067000D02*
X150317000Y-106067000D01*
X131728000Y-109432000D02*
X135093000Y-106067000D01*
X127919000Y-109432000D02*
X131728000Y-109432000D01*
X124109000Y-113242000D02*
X127919000Y-109432000D01*
X123008000Y-113242000D02*
X124109000Y-113242000D01*
X123008000Y-113242000D02*
X123007700Y-113242000D01*
%TO.N,Net-(U4-O2)*%
X152568000Y-99442000D02*
X153670000Y-99442000D01*
X150234000Y-101777000D02*
X152568000Y-99442000D01*
X145271000Y-101777000D02*
X150234000Y-101777000D01*
X142528000Y-104520000D02*
X145271000Y-101777000D01*
X125211000Y-104520000D02*
X142528000Y-104520000D01*
X124109000Y-105622000D02*
X125211000Y-104520000D01*
X123008000Y-105622000D02*
X124109000Y-105622000D01*
X123008000Y-105622000D02*
X123007700Y-105622000D01*
%TO.N,Net-(U4-O1)*%
X152568000Y-95392000D02*
X153670000Y-95392000D01*
X146986000Y-100975000D02*
X152568000Y-95392000D01*
X143528000Y-100975000D02*
X146986000Y-100975000D01*
X142522000Y-101980000D02*
X143528000Y-100975000D01*
X125211000Y-101980000D02*
X142522000Y-101980000D01*
X124109000Y-103082000D02*
X125211000Y-101980000D01*
X123008000Y-103082000D02*
X124109000Y-103082000D01*
X123008000Y-103082000D02*
X123007700Y-103082000D01*
%TO.N,Net-(U4-O0)*%
X152568000Y-91342000D02*
X153670000Y-91342000D01*
X149718000Y-94192000D02*
X152568000Y-91342000D01*
X125379000Y-94192000D02*
X149718000Y-94192000D01*
X124109000Y-95462000D02*
X125379000Y-94192000D01*
X123008000Y-95462000D02*
X124109000Y-95462000D01*
X123008000Y-95462000D02*
X123007700Y-95462000D01*
%TO.N,Net-(U3-O6)*%
X130882000Y-68030000D02*
X140820000Y-68030000D01*
X130882000Y-68030000D02*
X130881700Y-68030000D01*
%TO.N,Net-(U3-O5)*%
X152822000Y-71798000D02*
X153924000Y-71798000D01*
X151594000Y-70570000D02*
X152822000Y-71798000D01*
X130882000Y-70570000D02*
X151594000Y-70570000D01*
X130882000Y-70570000D02*
X130881700Y-70570000D01*
%TO.N,Net-(U3-O4)*%
X149126000Y-78190000D02*
X130882000Y-78190000D01*
X155077000Y-72238900D02*
X149126000Y-78190000D01*
X155077000Y-70002600D02*
X155077000Y-72238900D01*
X153924000Y-68849700D02*
X155077000Y-70002600D01*
X153924000Y-67748000D02*
X153924000Y-68849700D01*
X130882000Y-78190000D02*
X130881700Y-78190000D01*
%TO.N,Net-(U3-O3)*%
X123262000Y-78190000D02*
X123262000Y-77639100D01*
X152822000Y-63698000D02*
X153924000Y-63698000D01*
X147275000Y-69245400D02*
X152822000Y-63698000D01*
X130614000Y-69245400D02*
X147275000Y-69245400D01*
X124363000Y-75495800D02*
X130614000Y-69245400D01*
X124363000Y-76124400D02*
X124363000Y-75495800D01*
X123400000Y-77088300D02*
X124363000Y-76124400D01*
X123262000Y-77088300D02*
X123400000Y-77088300D01*
X123262000Y-77639100D02*
X123262000Y-77088300D01*
X123261700Y-77639400D02*
X123261700Y-78190000D01*
X123262000Y-77639100D02*
X123261700Y-77639400D01*
%TO.N,Net-(U3-O2)*%
X124363000Y-70570000D02*
X123262000Y-70570000D01*
X128173000Y-66760000D02*
X124363000Y-70570000D01*
X145710000Y-66760000D02*
X128173000Y-66760000D01*
X152822000Y-59648000D02*
X145710000Y-66760000D01*
X153924000Y-59648000D02*
X152822000Y-59648000D01*
X123262000Y-70570000D02*
X123261700Y-70570000D01*
%TO.N,Net-(U3-O1)*%
X152822000Y-55598000D02*
X153924000Y-55598000D01*
X144200000Y-64220000D02*
X152822000Y-55598000D01*
X128173000Y-64220000D02*
X144200000Y-64220000D01*
X124363000Y-68030000D02*
X128173000Y-64220000D01*
X123262000Y-68030000D02*
X124363000Y-68030000D01*
X123262000Y-68030000D02*
X123261700Y-68030000D01*
%TO.N,Net-(U3-O0)*%
X152822000Y-51548000D02*
X153924000Y-51548000D01*
X151083000Y-53287600D02*
X152822000Y-51548000D01*
X136992000Y-53287600D02*
X151083000Y-53287600D01*
X135246000Y-55033500D02*
X136992000Y-53287600D01*
X129740000Y-55033500D02*
X135246000Y-55033500D01*
X124363000Y-60410000D02*
X129740000Y-55033500D01*
X123262000Y-60410000D02*
X124363000Y-60410000D01*
X123262000Y-60410000D02*
X123261700Y-60410000D01*
%TO.N,Net-(J3-In)*%
X147497000Y-120955000D02*
X146304000Y-119762000D01*
X167674000Y-120955000D02*
X147497000Y-120955000D01*
X168824000Y-119804000D02*
X167674000Y-120955000D01*
X169926000Y-119804000D02*
X168824000Y-119804000D01*
%TO.N,Net-(J2-In)*%
X189296000Y-78486000D02*
X187944000Y-78486000D01*
X147427000Y-78774700D02*
X146304000Y-79898000D01*
X167673000Y-78774700D02*
X147427000Y-78774700D01*
X168824000Y-79926000D02*
X167673000Y-78774700D01*
X169926000Y-79926000D02*
X168824000Y-79926000D01*
X186504000Y-79926000D02*
X187944000Y-78486000D01*
X169926000Y-79926000D02*
X186504000Y-79926000D01*
%TO.N,/D7*%
X133138000Y-81514200D02*
X134711000Y-81514200D01*
X132775000Y-81877200D02*
X133138000Y-81514200D01*
X95566400Y-81877200D02*
X132775000Y-81877200D01*
X87857200Y-74168000D02*
X95566400Y-81877200D01*
X78486000Y-74168000D02*
X87857200Y-74168000D01*
X130628000Y-98002000D02*
X130628000Y-97451100D01*
X132087000Y-95578800D02*
X132087000Y-94950900D01*
X130765000Y-96900300D02*
X132087000Y-95578800D01*
X130628000Y-96900300D02*
X130765000Y-96900300D01*
X130628000Y-97451100D02*
X130628000Y-96900300D01*
X130627700Y-97451400D02*
X130627700Y-98002000D01*
X130628000Y-97451100D02*
X130627700Y-97451400D01*
%TO.N,/D0*%
X122160000Y-62950000D02*
X123261700Y-62950000D01*
X121058000Y-61848300D02*
X122160000Y-62950000D01*
X113157000Y-61848300D02*
X121058000Y-61848300D01*
X107697000Y-56388000D02*
X113157000Y-61848300D01*
X78486000Y-56388000D02*
X107697000Y-56388000D01*
X123262000Y-62950000D02*
X123261700Y-62950000D01*
%TO.N,/A3*%
X79637700Y-84328000D02*
X78486000Y-84328000D01*
X87144700Y-91835000D02*
X79637700Y-84328000D01*
X99095300Y-91835000D02*
X87144700Y-91835000D01*
X103018000Y-95758000D02*
X99095300Y-91835000D01*
X104120000Y-95758000D02*
X103018000Y-95758000D01*
%TO.N,/D1*%
X123262000Y-65490000D02*
X123261700Y-65490000D01*
X79637700Y-58928000D02*
X78486000Y-58928000D01*
X84712700Y-64003000D02*
X79637700Y-58928000D01*
X103538000Y-64003000D02*
X84712700Y-64003000D01*
X103923000Y-64388300D02*
X103538000Y-64003000D01*
X121058000Y-64388300D02*
X103923000Y-64388300D01*
X122160000Y-65490000D02*
X121058000Y-64388300D01*
X123261700Y-65490000D02*
X122160000Y-65490000D01*
%TO.N,/D3*%
X79637700Y-64008000D02*
X78486000Y-64008000D01*
X84876900Y-69247200D02*
X79637700Y-64008000D01*
X115757000Y-69247200D02*
X84876900Y-69247200D01*
X122160000Y-75650000D02*
X115757000Y-69247200D01*
X123261700Y-75650000D02*
X122160000Y-75650000D01*
X123262000Y-75650000D02*
X123261700Y-75650000D01*
%TO.N,/D2*%
X122160000Y-73110000D02*
X123261700Y-73110000D01*
X115763000Y-66712800D02*
X122160000Y-73110000D01*
X103708000Y-66712800D02*
X115763000Y-66712800D01*
X103370000Y-66374700D02*
X103708000Y-66712800D01*
X84544400Y-66374700D02*
X103370000Y-66374700D01*
X79637700Y-61468000D02*
X84544400Y-66374700D01*
X78486000Y-61468000D02*
X79637700Y-61468000D01*
X123261700Y-73110000D02*
X123262000Y-73110000D01*
%TO.N,/D6*%
X130628000Y-100542000D02*
X130627700Y-100542000D01*
X130627700Y-100542000D02*
X129526000Y-100542000D01*
%TO.N,/A2*%
X102998000Y-60467000D02*
X104100000Y-60467000D01*
X101834000Y-61631300D02*
X102998000Y-60467000D01*
X90341400Y-61631300D02*
X101834000Y-61631300D01*
X89239700Y-62733000D02*
X90341400Y-61631300D01*
X88138000Y-62733000D02*
X89239700Y-62733000D01*
%TO.N,/D4*%
X130882000Y-75650000D02*
X130881700Y-75650000D01*
X79637700Y-66548000D02*
X78486000Y-66548000D01*
X84717700Y-71628000D02*
X79637700Y-66548000D01*
X103543000Y-71628000D02*
X84717700Y-71628000D01*
X103708000Y-71792800D02*
X103543000Y-71628000D01*
X105532000Y-71792800D02*
X103708000Y-71792800D01*
X113048000Y-79308400D02*
X105532000Y-71792800D01*
X126122000Y-79308400D02*
X113048000Y-79308400D01*
X129780000Y-75650000D02*
X126122000Y-79308400D01*
X130881700Y-75650000D02*
X129780000Y-75650000D01*
%TO.N,/A0*%
X103018000Y-93218000D02*
X104120000Y-93218000D01*
X86508300Y-76708000D02*
X103018000Y-93218000D01*
X78486000Y-76708000D02*
X86508300Y-76708000D01*
%TO.N,/D5*%
X133316000Y-82326000D02*
X133468000Y-82173800D01*
X93000300Y-82326000D02*
X133316000Y-82326000D01*
X86115300Y-75441000D02*
X93000300Y-82326000D01*
X75586900Y-75441000D02*
X86115300Y-75441000D01*
X74794300Y-74648400D02*
X75586900Y-75441000D01*
X74794300Y-73655600D02*
X74794300Y-74648400D01*
X75551900Y-72898000D02*
X74794300Y-73655600D01*
X76364300Y-72898000D02*
X75551900Y-72898000D01*
X77216000Y-72046300D02*
X76364300Y-72898000D01*
X77216000Y-71241200D02*
X77216000Y-72046300D01*
X78217500Y-70239700D02*
X77216000Y-71241200D01*
X78486000Y-70239700D02*
X78217500Y-70239700D01*
X78486000Y-69088000D02*
X78486000Y-70239700D01*
%TO.N,/XOUT*%
X103018000Y-100838000D02*
X104120000Y-100838000D01*
X102239000Y-100059000D02*
X103018000Y-100838000D01*
X80128700Y-100059000D02*
X102239000Y-100059000D01*
X79637700Y-99568000D02*
X80128700Y-100059000D01*
X78486000Y-99568000D02*
X79637700Y-99568000D01*
%TO.N,/A1*%
X88138000Y-60193000D02*
X88138000Y-57653000D01*
X86782300Y-93726000D02*
X87884000Y-93726000D01*
X86782300Y-93450600D02*
X86782300Y-93726000D01*
X78929700Y-85598000D02*
X86782300Y-93450600D01*
X78067600Y-85598000D02*
X78929700Y-85598000D01*
X77275900Y-84806300D02*
X78067600Y-85598000D01*
X77275900Y-81321900D02*
X77275900Y-84806300D01*
X78198100Y-80399700D02*
X77275900Y-81321900D01*
X78486000Y-80399700D02*
X78198100Y-80399700D01*
X78486000Y-79248000D02*
X78486000Y-80399700D01*
%TO.N,/A7*%
X103018000Y-98298000D02*
X104120000Y-98298000D01*
X102150000Y-97429700D02*
X103018000Y-98298000D01*
X82579400Y-97429700D02*
X102150000Y-97429700D01*
X79637700Y-94488000D02*
X82579400Y-97429700D01*
X78486000Y-94488000D02*
X79637700Y-94488000D01*
%TO.N,GND*%
X110225000Y-80730000D02*
X123261700Y-80730000D01*
X105202000Y-75707000D02*
X110225000Y-80730000D01*
X104100000Y-75707000D02*
X105202000Y-75707000D01*
X115981000Y-57870000D02*
X123261700Y-57870000D01*
X110704000Y-52593000D02*
X115981000Y-57870000D01*
X89239700Y-72893000D02*
X88138000Y-72893000D01*
X92053700Y-75707000D02*
X89239700Y-72893000D01*
X104100000Y-75707000D02*
X92053700Y-75707000D01*
X86782300Y-108966000D02*
X87884000Y-108966000D01*
X86337800Y-108522000D02*
X86782300Y-108966000D01*
X78016300Y-108522000D02*
X86337800Y-108522000D01*
X77097700Y-109440000D02*
X78016300Y-108522000D01*
X164331000Y-53799000D02*
X162306000Y-51774000D01*
X173976000Y-53799000D02*
X164331000Y-53799000D01*
X179105000Y-58928000D02*
X173976000Y-53799000D01*
X179832000Y-58928000D02*
X179105000Y-58928000D01*
X77097700Y-74168000D02*
X75946000Y-74168000D01*
X77097700Y-73899500D02*
X77097700Y-74168000D01*
X78104200Y-72893000D02*
X77097700Y-73899500D01*
X88138000Y-72893000D02*
X78104200Y-72893000D01*
X77097700Y-109728000D02*
X77097700Y-109440000D01*
X75946000Y-109728000D02*
X77097700Y-109728000D01*
X109586000Y-51474700D02*
X110704000Y-52593000D01*
X94595300Y-51474700D02*
X109586000Y-51474700D01*
X93492000Y-52578000D02*
X94595300Y-51474700D01*
X75997300Y-108340000D02*
X77097700Y-109440000D01*
X75946000Y-108340000D02*
X75997300Y-108340000D01*
X75946000Y-107188000D02*
X75946000Y-108340000D01*
X91017700Y-110998000D02*
X104120000Y-110998000D01*
X88985700Y-108966000D02*
X91017700Y-110998000D01*
X87884000Y-108966000D02*
X88985700Y-108966000D01*
X159382000Y-88968100D02*
X128850000Y-88968100D01*
X162306000Y-91892000D02*
X159382000Y-88968100D01*
X80115900Y-52578000D02*
X93492000Y-52578000D01*
X77097700Y-55596200D02*
X80115900Y-52578000D01*
X77097700Y-56388000D02*
X77097700Y-55596200D01*
X75946000Y-56388000D02*
X77097700Y-56388000D01*
X110006000Y-115782000D02*
X123007700Y-115782000D01*
X105222000Y-110998000D02*
X110006000Y-115782000D01*
X104120000Y-110998000D02*
X105222000Y-110998000D01*
X123007700Y-115782000D02*
X123008000Y-115782000D01*
X124109000Y-92922000D02*
X123007700Y-92922000D01*
X128063000Y-88968100D02*
X124109000Y-92922000D01*
X128850000Y-88968100D02*
X128063000Y-88968100D01*
X117032000Y-92922000D02*
X112248000Y-88138000D01*
X123007700Y-92922000D02*
X117032000Y-92922000D01*
X123261700Y-57870000D02*
X123262000Y-57870000D01*
X123262000Y-80730000D02*
X123261700Y-80730000D01*
X128850000Y-87842000D02*
X128850000Y-88405000D01*
X128850000Y-88405000D02*
X128850000Y-88968100D01*
X128849700Y-88404700D02*
X128849700Y-87842000D01*
X128850000Y-88405000D02*
X128849700Y-88404700D01*
X164394000Y-93980000D02*
X164112000Y-93698000D01*
X164112000Y-93698000D02*
X162306000Y-91892000D01*
X178685300Y-93698000D02*
X178713300Y-93726000D01*
X164112000Y-93698000D02*
X178685300Y-93698000D01*
X180815000Y-93726000D02*
X178713300Y-93726000D01*
%TO.N,+5V*%
X107809000Y-52578000D02*
X95992000Y-52578000D01*
X113158000Y-57927000D02*
X107809000Y-52578000D01*
X114260000Y-57927000D02*
X113158000Y-57927000D01*
X113178000Y-93218000D02*
X114280000Y-93218000D01*
X109523000Y-96873200D02*
X113178000Y-93218000D01*
X99752900Y-96873200D02*
X109523000Y-96873200D01*
X96605700Y-93726000D02*
X99752900Y-96873200D01*
X95504000Y-93726000D02*
X96605700Y-93726000D01*
X130628000Y-92922000D02*
X130627700Y-92922000D01*
X115382000Y-93218000D02*
X114280000Y-93218000D01*
X116214000Y-94050300D02*
X115382000Y-93218000D01*
X124251000Y-94050300D02*
X116214000Y-94050300D01*
X125379000Y-92922000D02*
X124251000Y-94050300D01*
X130627700Y-92922000D02*
X125379000Y-92922000D01*
X175096000Y-59928000D02*
X179832000Y-59928000D01*
X173017000Y-57849000D02*
X175096000Y-59928000D01*
X158899000Y-57849000D02*
X173017000Y-57849000D01*
X155511000Y-54460500D02*
X158899000Y-57849000D01*
X136529000Y-54460500D02*
X155511000Y-54460500D01*
X133119000Y-57870000D02*
X136529000Y-54460500D01*
X130882000Y-57870000D02*
X133119000Y-57870000D01*
X130882000Y-57870000D02*
X130881700Y-57870000D01*
X130373700Y-53044000D02*
X130373800Y-53043900D01*
X129258000Y-51928300D02*
X130373800Y-53043900D01*
X113869000Y-51928300D02*
X129258000Y-51928300D01*
X113204000Y-52593000D02*
X113869000Y-51928300D01*
X130373800Y-53043900D02*
X130374000Y-53044000D01*
%TD*%
M02*
