%TF.GenerationSoftware,KiCad,Pcbnew,8.0.1*%
%TF.CreationDate,2024-06-17T09:25:23-04:00*%
%TF.ProjectId,lbporch,6c62706f-7263-4682-9e6b-696361645f70,rev?*%
%TF.SameCoordinates,Original*%
%TF.FileFunction,Copper,L2,Bot*%
%TF.FilePolarity,Positive*%
%FSLAX46Y46*%
G04 Gerber Fmt 4.6, Leading zero omitted, Abs format (unit mm)*
G04 Created by KiCad (PCBNEW 8.0.1) date 2024-06-17 09:25:23*
%MOMM*%
%LPD*%
G01*
G04 APERTURE LIST*
%TA.AperFunction,ComponentPad*%
%ADD10R,1.600000X1.600000*%
%TD*%
%TA.AperFunction,ComponentPad*%
%ADD11O,1.600000X1.600000*%
%TD*%
%TA.AperFunction,ComponentPad*%
%ADD12R,0.850000X0.850000*%
%TD*%
%TA.AperFunction,ComponentPad*%
%ADD13O,0.850000X0.850000*%
%TD*%
%TA.AperFunction,ComponentPad*%
%ADD14C,1.600000*%
%TD*%
%TA.AperFunction,ComponentPad*%
%ADD15O,2.100000X4.200000*%
%TD*%
%TA.AperFunction,ComponentPad*%
%ADD16O,3.600000X1.800000*%
%TD*%
%TA.AperFunction,ComponentPad*%
%ADD17R,1.700000X1.700000*%
%TD*%
%TA.AperFunction,ComponentPad*%
%ADD18O,1.700000X1.700000*%
%TD*%
%TA.AperFunction,ViaPad*%
%ADD19C,0.600000*%
%TD*%
%TA.AperFunction,Conductor*%
%ADD20C,0.200000*%
%TD*%
G04 APERTURE END LIST*
D10*
%TO.P,U2,1*%
%TO.N,/A1*%
X87884000Y-93726000D03*
D11*
%TO.P,U2,2*%
X87884000Y-96266000D03*
%TO.P,U2,3*%
%TO.N,/A2*%
X87884000Y-98806000D03*
%TO.P,U2,4*%
X87884000Y-101346000D03*
%TO.P,U2,5*%
%TO.N,/A4*%
X87884000Y-103886000D03*
%TO.P,U2,6*%
%TO.N,/A5*%
X87884000Y-106426000D03*
%TO.P,U2,7,GND*%
%TO.N,GND*%
X87884000Y-108966000D03*
%TO.P,U2,8*%
%TO.N,Net-(U6-E2)*%
X95504000Y-108966000D03*
%TO.P,U2,9*%
%TO.N,N/C*%
X95504000Y-106426000D03*
%TO.P,U2,10*%
X95504000Y-103886000D03*
%TO.P,U2,11*%
%TO.N,/A5*%
X95504000Y-101346000D03*
%TO.P,U2,12*%
X95504000Y-98806000D03*
%TO.P,U2,13*%
%TO.N,N/C*%
X95504000Y-96266000D03*
%TO.P,U2,14,Vcc*%
%TO.N,+5V*%
X95504000Y-93726000D03*
%TD*%
D12*
%TO.P,J4,1,Pin_1*%
%TO.N,GND*%
X179832000Y-58928000D03*
D13*
%TO.P,J4,2,Pin_2*%
%TO.N,+5V*%
X179832000Y-59928000D03*
%TD*%
D10*
%TO.P,U3,1,OE*%
%TO.N,GND*%
X123261700Y-57870000D03*
D11*
%TO.P,U3,2,O0*%
%TO.N,Net-(U3-O0)*%
X123261700Y-60410000D03*
%TO.P,U3,3,D0*%
%TO.N,/D0*%
X123261700Y-62950000D03*
%TO.P,U3,4,D1*%
%TO.N,/D1*%
X123261700Y-65490000D03*
%TO.P,U3,5,O1*%
%TO.N,Net-(U3-O1)*%
X123261700Y-68030000D03*
%TO.P,U3,6,O2*%
%TO.N,Net-(U3-O2)*%
X123261700Y-70570000D03*
%TO.P,U3,7,D2*%
%TO.N,/D2*%
X123261700Y-73110000D03*
%TO.P,U3,8,D3*%
%TO.N,/D3*%
X123261700Y-75650000D03*
%TO.P,U3,9,O3*%
%TO.N,Net-(U3-O3)*%
X123261700Y-78190000D03*
%TO.P,U3,10,GND*%
%TO.N,GND*%
X123261700Y-80730000D03*
%TO.P,U3,11,Cp*%
%TO.N,Net-(U3-Cp)*%
X130881700Y-80730000D03*
%TO.P,U3,12,O4*%
%TO.N,Net-(U3-O4)*%
X130881700Y-78190000D03*
%TO.P,U3,13,D4*%
%TO.N,/D4*%
X130881700Y-75650000D03*
%TO.P,U3,14,D5*%
%TO.N,/D5*%
X130881700Y-73110000D03*
%TO.P,U3,15,O5*%
%TO.N,Net-(U3-O5)*%
X130881700Y-70570000D03*
%TO.P,U3,16,O6*%
%TO.N,Net-(U3-O6)*%
X130881700Y-68030000D03*
%TO.P,U3,17,D6*%
%TO.N,/D6*%
X130881700Y-65490000D03*
%TO.P,U3,18,D7*%
%TO.N,/D7*%
X130881700Y-62950000D03*
%TO.P,U3,19,O7*%
%TO.N,Net-(U3-O7)*%
X130881700Y-60410000D03*
%TO.P,U3,20,VCC*%
%TO.N,+5V*%
X130881700Y-57870000D03*
%TD*%
D14*
%TO.P,C6,1*%
%TO.N,GND*%
X93492000Y-52578000D03*
%TO.P,C6,2*%
%TO.N,+5V*%
X95992000Y-52578000D03*
%TD*%
%TO.P,R24,1*%
%TO.N,Net-(R23-Pad2)*%
X162306000Y-79926000D03*
D11*
%TO.P,R24,2*%
%TO.N,Net-(J2-In)*%
X169926000Y-79926000D03*
%TD*%
D14*
%TO.P,R17,1*%
%TO.N,GND*%
X162306000Y-51774000D03*
D11*
%TO.P,R17,2*%
%TO.N,Net-(R1-Pad1)*%
X169926000Y-51774000D03*
%TD*%
D14*
%TO.P,R32,1*%
%TO.N,Net-(R15-Pad1)*%
X162306000Y-119804000D03*
D11*
%TO.P,R32,2*%
%TO.N,Net-(J3-In)*%
X169926000Y-119804000D03*
%TD*%
D14*
%TO.P,R18,1*%
%TO.N,Net-(R1-Pad1)*%
X162306000Y-55824000D03*
D11*
%TO.P,R18,2*%
%TO.N,Net-(R18-Pad2)*%
X169926000Y-55824000D03*
%TD*%
D14*
%TO.P,C4,1*%
%TO.N,GND*%
X112248000Y-88138000D03*
%TO.P,C4,2*%
%TO.N,+5V*%
X114748000Y-88138000D03*
%TD*%
D10*
%TO.P,U1,1*%
%TO.N,/A1*%
X88138000Y-57653000D03*
D11*
%TO.P,U1,2*%
X88138000Y-60193000D03*
%TO.P,U1,3*%
%TO.N,/A2*%
X88138000Y-62733000D03*
%TO.P,U1,4*%
X88138000Y-65273000D03*
%TO.P,U1,5*%
%TO.N,/A4*%
X88138000Y-67813000D03*
%TO.P,U1,6*%
%TO.N,/A5*%
X88138000Y-70353000D03*
%TO.P,U1,7,GND*%
%TO.N,GND*%
X88138000Y-72893000D03*
%TO.P,U1,8*%
%TO.N,Net-(U5-E2)*%
X95758000Y-72893000D03*
%TO.P,U1,9*%
%TO.N,N/C*%
X95758000Y-70353000D03*
%TO.P,U1,10*%
X95758000Y-67813000D03*
%TO.P,U1,11*%
%TO.N,/A5*%
X95758000Y-65273000D03*
%TO.P,U1,12*%
X95758000Y-62733000D03*
%TO.P,U1,13*%
%TO.N,N/C*%
X95758000Y-60193000D03*
%TO.P,U1,14,Vcc*%
%TO.N,+5V*%
X95758000Y-57653000D03*
%TD*%
D14*
%TO.P,R26,1*%
%TO.N,Net-(R25-Pad2)*%
X162306000Y-95504000D03*
D11*
%TO.P,R26,2*%
%TO.N,Net-(R10-Pad1)*%
X169926000Y-95504000D03*
%TD*%
D14*
%TO.P,R28,1*%
%TO.N,Net-(R11-Pad1)*%
X162306000Y-103604000D03*
D11*
%TO.P,R28,2*%
%TO.N,Net-(R12-Pad1)*%
X169926000Y-103604000D03*
%TD*%
D14*
%TO.P,R1,1*%
%TO.N,Net-(R1-Pad1)*%
X146304000Y-51548000D03*
D11*
%TO.P,R1,2*%
%TO.N,Net-(U3-O0)*%
X153924000Y-51548000D03*
%TD*%
D14*
%TO.P,R25,1*%
%TO.N,GND*%
X162306000Y-91892000D03*
D11*
%TO.P,R25,2*%
%TO.N,Net-(R25-Pad2)*%
X169926000Y-91892000D03*
%TD*%
D14*
%TO.P,C3,1*%
%TO.N,GND*%
X128849700Y-87842000D03*
%TO.P,C3,2*%
%TO.N,+5V*%
X131349700Y-87842000D03*
%TD*%
%TO.P,R29,1*%
%TO.N,Net-(R12-Pad1)*%
X162306000Y-107654000D03*
D11*
%TO.P,R29,2*%
%TO.N,Net-(R13-Pad1)*%
X169926000Y-107654000D03*
%TD*%
D14*
%TO.P,R13,1*%
%TO.N,Net-(R13-Pad1)*%
X146304000Y-107612000D03*
D11*
%TO.P,R13,2*%
%TO.N,Net-(U4-O4)*%
X153924000Y-107612000D03*
%TD*%
D14*
%TO.P,R20,1*%
%TO.N,Net-(R19-Pad2)*%
X162306000Y-63924000D03*
D11*
%TO.P,R20,2*%
%TO.N,Net-(R20-Pad2)*%
X169926000Y-63924000D03*
%TD*%
D10*
%TO.P,U5,1,A0*%
%TO.N,/A0*%
X104100000Y-57927000D03*
D11*
%TO.P,U5,2,A1*%
%TO.N,/A2*%
X104100000Y-60467000D03*
%TO.P,U5,3,A2*%
%TO.N,/A7*%
X104100000Y-63007000D03*
%TO.P,U5,4,E1*%
%TO.N,/XOUT*%
X104100000Y-65547000D03*
%TO.P,U5,5,E2*%
%TO.N,Net-(U5-E2)*%
X104100000Y-68087000D03*
%TO.P,U5,6,E3*%
%TO.N,unconnected-(U5-E3-Pad6)*%
X104100000Y-70627000D03*
%TO.P,U5,7,O7*%
%TO.N,unconnected-(U5-O7-Pad7)*%
X104100000Y-73167000D03*
%TO.P,U5,8,GND*%
%TO.N,GND*%
X104100000Y-75707000D03*
%TO.P,U5,9,O6*%
%TO.N,unconnected-(U5-O6-Pad9)*%
X114260000Y-75707000D03*
%TO.P,U5,10,O5*%
%TO.N,unconnected-(U5-O5-Pad10)*%
X114260000Y-73167000D03*
%TO.P,U5,11,O4*%
%TO.N,unconnected-(U5-O4-Pad11)*%
X114260000Y-70627000D03*
%TO.P,U5,12,O3*%
%TO.N,unconnected-(U5-O3-Pad12)*%
X114260000Y-68087000D03*
%TO.P,U5,13,O2*%
%TO.N,unconnected-(U5-O2-Pad13)*%
X114260000Y-65547000D03*
%TO.P,U5,14,O1*%
%TO.N,unconnected-(U5-O1-Pad14)*%
X114260000Y-63007000D03*
%TO.P,U5,15,O0*%
%TO.N,Net-(U3-Cp)*%
X114260000Y-60467000D03*
%TO.P,U5,16,VCC*%
%TO.N,+5V*%
X114260000Y-57927000D03*
%TD*%
D14*
%TO.P,R22,1*%
%TO.N,Net-(R21-Pad2)*%
X162306000Y-72024000D03*
D11*
%TO.P,R22,2*%
%TO.N,Net-(R22-Pad2)*%
X169926000Y-72024000D03*
%TD*%
D14*
%TO.P,R31,1*%
%TO.N,Net-(R14-Pad1)*%
X162306000Y-115754000D03*
D11*
%TO.P,R31,2*%
%TO.N,Net-(R15-Pad1)*%
X169926000Y-115754000D03*
%TD*%
D14*
%TO.P,R4,1*%
%TO.N,Net-(R20-Pad2)*%
X146304000Y-63698000D03*
D11*
%TO.P,R4,2*%
%TO.N,Net-(U3-O3)*%
X153924000Y-63698000D03*
%TD*%
D15*
%TO.P,J3,1,In*%
%TO.N,Net-(J3-In)*%
X189515000Y-93726000D03*
D16*
%TO.P,J3,2,Ext*%
%TO.N,GND*%
X180815000Y-93726000D03*
%TD*%
D14*
%TO.P,R14,1*%
%TO.N,Net-(R14-Pad1)*%
X146304000Y-111662000D03*
D11*
%TO.P,R14,2*%
%TO.N,Net-(U4-O5)*%
X153924000Y-111662000D03*
%TD*%
D14*
%TO.P,R16,1*%
%TO.N,Net-(J3-In)*%
X146304000Y-119762000D03*
D11*
%TO.P,R16,2*%
%TO.N,Net-(U4-O7)*%
X153924000Y-119762000D03*
%TD*%
D10*
%TO.P,U6,1,A0*%
%TO.N,/A0*%
X104120000Y-93218000D03*
D11*
%TO.P,U6,2,A1*%
%TO.N,/A3*%
X104120000Y-95758000D03*
%TO.P,U6,3,A2*%
%TO.N,/A7*%
X104120000Y-98298000D03*
%TO.P,U6,4,E1*%
%TO.N,/XOUT*%
X104120000Y-100838000D03*
%TO.P,U6,5,E2*%
%TO.N,Net-(U6-E2)*%
X104120000Y-103378000D03*
%TO.P,U6,6,E3*%
%TO.N,unconnected-(U6-E3-Pad6)*%
X104120000Y-105918000D03*
%TO.P,U6,7,O7*%
%TO.N,unconnected-(U6-O7-Pad7)*%
X104120000Y-108458000D03*
%TO.P,U6,8,GND*%
%TO.N,GND*%
X104120000Y-110998000D03*
%TO.P,U6,9,O6*%
%TO.N,unconnected-(U6-O6-Pad9)*%
X114280000Y-110998000D03*
%TO.P,U6,10,O5*%
%TO.N,unconnected-(U6-O5-Pad10)*%
X114280000Y-108458000D03*
%TO.P,U6,11,O4*%
%TO.N,unconnected-(U6-O4-Pad11)*%
X114280000Y-105918000D03*
%TO.P,U6,12,O3*%
%TO.N,unconnected-(U6-O3-Pad12)*%
X114280000Y-103378000D03*
%TO.P,U6,13,O2*%
%TO.N,unconnected-(U6-O2-Pad13)*%
X114280000Y-100838000D03*
%TO.P,U6,14,O1*%
%TO.N,unconnected-(U6-O1-Pad14)*%
X114280000Y-98298000D03*
%TO.P,U6,15,O0*%
%TO.N,Net-(U4-Cp)*%
X114280000Y-95758000D03*
%TO.P,U6,16,VCC*%
%TO.N,+5V*%
X114280000Y-93218000D03*
%TD*%
D14*
%TO.P,R10,1*%
%TO.N,Net-(R10-Pad1)*%
X146050000Y-95392000D03*
D11*
%TO.P,R10,2*%
%TO.N,Net-(U4-O1)*%
X153670000Y-95392000D03*
%TD*%
D14*
%TO.P,R30,1*%
%TO.N,Net-(R13-Pad1)*%
X162306000Y-111704000D03*
D11*
%TO.P,R30,2*%
%TO.N,Net-(R14-Pad1)*%
X169926000Y-111704000D03*
%TD*%
D14*
%TO.P,C2,1*%
%TO.N,GND*%
X127873700Y-53044000D03*
%TO.P,C2,2*%
%TO.N,+5V*%
X130373700Y-53044000D03*
%TD*%
%TO.P,R11,1*%
%TO.N,Net-(R11-Pad1)*%
X146050000Y-99442000D03*
D11*
%TO.P,R11,2*%
%TO.N,Net-(U4-O2)*%
X153670000Y-99442000D03*
%TD*%
D14*
%TO.P,R12,1*%
%TO.N,Net-(R12-Pad1)*%
X146304000Y-103562000D03*
D11*
%TO.P,R12,2*%
%TO.N,Net-(U4-O3)*%
X153924000Y-103562000D03*
%TD*%
D14*
%TO.P,R15,1*%
%TO.N,Net-(R15-Pad1)*%
X146304000Y-115712000D03*
D11*
%TO.P,R15,2*%
%TO.N,Net-(U4-O6)*%
X153924000Y-115712000D03*
%TD*%
D10*
%TO.P,U4,1,OE*%
%TO.N,GND*%
X123007700Y-92922000D03*
D11*
%TO.P,U4,2,O0*%
%TO.N,Net-(U4-O0)*%
X123007700Y-95462000D03*
%TO.P,U4,3,D0*%
%TO.N,/D0*%
X123007700Y-98002000D03*
%TO.P,U4,4,D1*%
%TO.N,/D1*%
X123007700Y-100542000D03*
%TO.P,U4,5,O1*%
%TO.N,Net-(U4-O1)*%
X123007700Y-103082000D03*
%TO.P,U4,6,O2*%
%TO.N,Net-(U4-O2)*%
X123007700Y-105622000D03*
%TO.P,U4,7,D2*%
%TO.N,/D2*%
X123007700Y-108162000D03*
%TO.P,U4,8,D3*%
%TO.N,/D3*%
X123007700Y-110702000D03*
%TO.P,U4,9,O3*%
%TO.N,Net-(U4-O3)*%
X123007700Y-113242000D03*
%TO.P,U4,10,GND*%
%TO.N,GND*%
X123007700Y-115782000D03*
%TO.P,U4,11,Cp*%
%TO.N,Net-(U4-Cp)*%
X130627700Y-115782000D03*
%TO.P,U4,12,O4*%
%TO.N,Net-(U4-O4)*%
X130627700Y-113242000D03*
%TO.P,U4,13,D4*%
%TO.N,/D4*%
X130627700Y-110702000D03*
%TO.P,U4,14,D5*%
%TO.N,/D5*%
X130627700Y-108162000D03*
%TO.P,U4,15,O5*%
%TO.N,Net-(U4-O5)*%
X130627700Y-105622000D03*
%TO.P,U4,16,O6*%
%TO.N,Net-(U4-O6)*%
X130627700Y-103082000D03*
%TO.P,U4,17,D6*%
%TO.N,/D6*%
X130627700Y-100542000D03*
%TO.P,U4,18,D7*%
%TO.N,/D7*%
X130627700Y-98002000D03*
%TO.P,U4,19,O7*%
%TO.N,Net-(U4-O7)*%
X130627700Y-95462000D03*
%TO.P,U4,20,VCC*%
%TO.N,+5V*%
X130627700Y-92922000D03*
%TD*%
D14*
%TO.P,R3,1*%
%TO.N,Net-(R19-Pad2)*%
X146304000Y-59648000D03*
D11*
%TO.P,R3,2*%
%TO.N,Net-(U3-O2)*%
X153924000Y-59648000D03*
%TD*%
D14*
%TO.P,R6,1*%
%TO.N,Net-(R22-Pad2)*%
X146304000Y-71798000D03*
D11*
%TO.P,R6,2*%
%TO.N,Net-(U3-O5)*%
X153924000Y-71798000D03*
%TD*%
D14*
%TO.P,R21,1*%
%TO.N,Net-(R20-Pad2)*%
X162306000Y-67974000D03*
D11*
%TO.P,R21,2*%
%TO.N,Net-(R21-Pad2)*%
X169926000Y-67974000D03*
%TD*%
D14*
%TO.P,R8,1*%
%TO.N,Net-(J2-In)*%
X146304000Y-79898000D03*
D11*
%TO.P,R8,2*%
%TO.N,Net-(U3-O7)*%
X153924000Y-79898000D03*
%TD*%
D14*
%TO.P,R27,1*%
%TO.N,Net-(R10-Pad1)*%
X162306000Y-99554000D03*
D11*
%TO.P,R27,2*%
%TO.N,Net-(R11-Pad1)*%
X169926000Y-99554000D03*
%TD*%
D14*
%TO.P,R19,1*%
%TO.N,Net-(R18-Pad2)*%
X162306000Y-59874000D03*
D11*
%TO.P,R19,2*%
%TO.N,Net-(R19-Pad2)*%
X169926000Y-59874000D03*
%TD*%
D14*
%TO.P,C5,1*%
%TO.N,GND*%
X93492000Y-88138000D03*
%TO.P,C5,2*%
%TO.N,+5V*%
X95992000Y-88138000D03*
%TD*%
%TO.P,R2,1*%
%TO.N,Net-(R18-Pad2)*%
X146304000Y-55598000D03*
D11*
%TO.P,R2,2*%
%TO.N,Net-(U3-O1)*%
X153924000Y-55598000D03*
%TD*%
D14*
%TO.P,R9,1*%
%TO.N,Net-(R25-Pad2)*%
X146050000Y-91342000D03*
D11*
%TO.P,R9,2*%
%TO.N,Net-(U4-O0)*%
X153670000Y-91342000D03*
%TD*%
D14*
%TO.P,R23,1*%
%TO.N,Net-(R22-Pad2)*%
X162306000Y-75876000D03*
D11*
%TO.P,R23,2*%
%TO.N,Net-(R23-Pad2)*%
X169926000Y-75876000D03*
%TD*%
D14*
%TO.P,R5,1*%
%TO.N,Net-(R21-Pad2)*%
X146304000Y-67748000D03*
D11*
%TO.P,R5,2*%
%TO.N,Net-(U3-O4)*%
X153924000Y-67748000D03*
%TD*%
D14*
%TO.P,R7,1*%
%TO.N,Net-(R23-Pad2)*%
X146304000Y-75848000D03*
D11*
%TO.P,R7,2*%
%TO.N,Net-(U3-O6)*%
X153924000Y-75848000D03*
%TD*%
D15*
%TO.P,J2,1,In*%
%TO.N,Net-(J2-In)*%
X189296000Y-78486000D03*
D16*
%TO.P,J2,2,Ext*%
%TO.N,GND*%
X180596000Y-78486000D03*
%TD*%
D14*
%TO.P,C1,1*%
%TO.N,GND*%
X110704000Y-52593000D03*
%TO.P,C1,2*%
%TO.N,+5V*%
X113204000Y-52593000D03*
%TD*%
D17*
%TO.P,J1,1,Pin_1*%
%TO.N,/D0*%
X78486000Y-56388000D03*
D18*
%TO.P,J1,2,Pin_2*%
%TO.N,GND*%
X75946000Y-56388000D03*
%TO.P,J1,3,Pin_3*%
%TO.N,/D1*%
X78486000Y-58928000D03*
%TO.P,J1,4,Pin_4*%
%TO.N,GND*%
X75946000Y-58928000D03*
%TO.P,J1,5,Pin_5*%
%TO.N,/D2*%
X78486000Y-61468000D03*
%TO.P,J1,6,Pin_6*%
%TO.N,GND*%
X75946000Y-61468000D03*
%TO.P,J1,7,Pin_7*%
%TO.N,/D3*%
X78486000Y-64008000D03*
%TO.P,J1,8,Pin_8*%
%TO.N,GND*%
X75946000Y-64008000D03*
%TO.P,J1,9,Pin_9*%
%TO.N,/D4*%
X78486000Y-66548000D03*
%TO.P,J1,10,Pin_10*%
%TO.N,GND*%
X75946000Y-66548000D03*
%TO.P,J1,11,Pin_11*%
%TO.N,/D5*%
X78486000Y-69088000D03*
%TO.P,J1,12,Pin_12*%
%TO.N,GND*%
X75946000Y-69088000D03*
%TO.P,J1,13,Pin_13*%
%TO.N,/D6*%
X78486000Y-71628000D03*
%TO.P,J1,14,Pin_14*%
%TO.N,GND*%
X75946000Y-71628000D03*
%TO.P,J1,15,Pin_15*%
%TO.N,/D7*%
X78486000Y-74168000D03*
%TO.P,J1,16,Pin_16*%
%TO.N,GND*%
X75946000Y-74168000D03*
%TO.P,J1,17,Pin_17*%
%TO.N,/A0*%
X78486000Y-76708000D03*
%TO.P,J1,18,Pin_18*%
%TO.N,GND*%
X75946000Y-76708000D03*
%TO.P,J1,19,Pin_19*%
%TO.N,/A1*%
X78486000Y-79248000D03*
%TO.P,J1,20,Pin_20*%
%TO.N,GND*%
X75946000Y-79248000D03*
%TO.P,J1,21,Pin_21*%
%TO.N,/A2*%
X78486000Y-81788000D03*
%TO.P,J1,22,Pin_22*%
%TO.N,GND*%
X75946000Y-81788000D03*
%TO.P,J1,23,Pin_23*%
%TO.N,/A3*%
X78486000Y-84328000D03*
%TO.P,J1,24,Pin_24*%
%TO.N,GND*%
X75946000Y-84328000D03*
%TO.P,J1,25,Pin_25*%
%TO.N,/A4*%
X78486000Y-86868000D03*
%TO.P,J1,26,Pin_26*%
%TO.N,GND*%
X75946000Y-86868000D03*
%TO.P,J1,27,Pin_27*%
%TO.N,/A5*%
X78486000Y-89408000D03*
%TO.P,J1,28,Pin_28*%
%TO.N,GND*%
X75946000Y-89408000D03*
%TO.P,J1,29,Pin_29*%
%TO.N,/A6*%
X78486000Y-91948000D03*
%TO.P,J1,30,Pin_30*%
%TO.N,GND*%
X75946000Y-91948000D03*
%TO.P,J1,31,Pin_31*%
%TO.N,/A7*%
X78486000Y-94488000D03*
%TO.P,J1,32,Pin_32*%
%TO.N,GND*%
X75946000Y-94488000D03*
%TO.P,J1,33,Pin_33*%
%TO.N,/XIN*%
X78486000Y-97028000D03*
%TO.P,J1,34,Pin_34*%
%TO.N,GND*%
X75946000Y-97028000D03*
%TO.P,J1,35,Pin_35*%
%TO.N,/XOUT*%
X78486000Y-99568000D03*
%TO.P,J1,36,Pin_36*%
%TO.N,GND*%
X75946000Y-99568000D03*
%TO.P,J1,37,Pin_37*%
%TO.N,/XRESET*%
X78486000Y-102108000D03*
%TO.P,J1,38,Pin_38*%
%TO.N,GND*%
X75946000Y-102108000D03*
%TO.P,J1,39,Pin_39*%
%TO.N,/XINT*%
X78486000Y-104648000D03*
%TO.P,J1,40,Pin_40*%
%TO.N,GND*%
X75946000Y-104648000D03*
%TO.P,J1,41,Pin_41*%
%TO.N,/XWAIT*%
X78486000Y-107188000D03*
%TO.P,J1,42,Pin_42*%
%TO.N,GND*%
X75946000Y-107188000D03*
%TO.P,J1,43,Pin_43*%
%TO.N,/EXTIOSEL*%
X78486000Y-109728000D03*
%TO.P,J1,44,Pin_44*%
%TO.N,GND*%
X75946000Y-109728000D03*
%TO.P,J1,45,Pin_45*%
%TO.N,unconnected-(J1-Pin_45-Pad45)*%
X78486000Y-112268000D03*
%TO.P,J1,46,Pin_46*%
%TO.N,GND*%
X75946000Y-112268000D03*
%TO.P,J1,47,Pin_47*%
%TO.N,/XMI*%
X78486000Y-114808000D03*
%TO.P,J1,48,Pin_48*%
%TO.N,GND*%
X75946000Y-114808000D03*
%TO.P,J1,49,Pin_49*%
%TO.N,/XIDRQ*%
X78486000Y-117348000D03*
%TO.P,J1,50,Pin_50*%
%TO.N,GND*%
X75946000Y-117348000D03*
%TD*%
D19*
%TO.N,Net-(U3-O6)*%
X140820000Y-68030000D03*
%TO.N,/D7*%
X134711000Y-81514200D03*
X132087000Y-94950900D03*
%TO.N,/D5*%
X133468000Y-82173800D03*
%TD*%
D20*
%TO.N,Net-(U4-Cp)*%
X129526000Y-115782000D02*
X130627700Y-115782000D01*
X125716000Y-111972000D02*
X129526000Y-115782000D01*
X122662000Y-111972000D02*
X125716000Y-111972000D01*
X115382000Y-104692000D02*
X122662000Y-111972000D01*
X115382000Y-97823600D02*
X115382000Y-104692000D01*
X114418000Y-96859700D02*
X115382000Y-97823600D01*
X114280000Y-96859700D02*
X114418000Y-96859700D01*
X114280000Y-95758000D02*
X114280000Y-96859700D01*
X130627700Y-115782000D02*
X130628000Y-115782000D01*
%TO.N,Net-(U3-Cp)*%
X130882000Y-80730000D02*
X130882000Y-80179100D01*
X115362000Y-60467000D02*
X114260000Y-60467000D01*
X116575000Y-61680000D02*
X115362000Y-60467000D01*
X123572000Y-61680000D02*
X116575000Y-61680000D01*
X124782000Y-62890200D02*
X123572000Y-61680000D01*
X124782000Y-73666300D02*
X124782000Y-62890200D01*
X130744000Y-79628300D02*
X124782000Y-73666300D01*
X130882000Y-79628300D02*
X130744000Y-79628300D01*
X130882000Y-80179100D02*
X130882000Y-79628300D01*
X130881700Y-80179400D02*
X130881700Y-80730000D01*
X130882000Y-80179100D02*
X130881700Y-80179400D01*
%TO.N,Net-(U6-E2)*%
X102194000Y-103378000D02*
X104120000Y-103378000D01*
X96605700Y-108966000D02*
X102194000Y-103378000D01*
X95504000Y-108966000D02*
X96605700Y-108966000D01*
%TO.N,Net-(U5-E2)*%
X101666000Y-68087000D02*
X104100000Y-68087000D01*
X96859700Y-72893000D02*
X101666000Y-68087000D01*
X95758000Y-72893000D02*
X96859700Y-72893000D01*
%TO.N,Net-(U4-O7)*%
X131729000Y-95462000D02*
X130628000Y-95462000D01*
X141667000Y-105400000D02*
X131729000Y-95462000D01*
X149225000Y-105400000D02*
X141667000Y-105400000D01*
X155030000Y-111205000D02*
X149225000Y-105400000D01*
X155030000Y-117554000D02*
X155030000Y-111205000D01*
X153924000Y-118660000D02*
X155030000Y-117554000D01*
X153924000Y-119762000D02*
X153924000Y-118660000D01*
X130628000Y-95462000D02*
X130627700Y-95462000D01*
%TO.N,Net-(U4-O6)*%
X131729000Y-103082000D02*
X130628000Y-103082000D01*
X142334000Y-113687000D02*
X131729000Y-103082000D01*
X150797000Y-113687000D02*
X142334000Y-113687000D01*
X152822000Y-115712000D02*
X150797000Y-113687000D01*
X153924000Y-115712000D02*
X152822000Y-115712000D01*
X130628000Y-103082000D02*
X130627700Y-103082000D01*
%TO.N,Net-(U4-O5)*%
X130628000Y-105622000D02*
X130628000Y-105071000D01*
X152822000Y-111662000D02*
X153924000Y-111662000D01*
X150797000Y-109637000D02*
X152822000Y-111662000D01*
X145038000Y-109637000D02*
X150797000Y-109637000D01*
X137379000Y-101978000D02*
X145038000Y-109637000D01*
X130174000Y-101978000D02*
X137379000Y-101978000D01*
X129508000Y-102643000D02*
X130174000Y-101978000D01*
X129508000Y-103538000D02*
X129508000Y-102643000D01*
X130490000Y-104520000D02*
X129508000Y-103538000D01*
X130628000Y-104520000D02*
X130490000Y-104520000D01*
X130628000Y-105071000D02*
X130628000Y-104520000D01*
X130627700Y-105071300D02*
X130627700Y-105622000D01*
X130628000Y-105071000D02*
X130627700Y-105071300D01*
%TO.N,Net-(R14-Pad1)*%
X164774000Y-115754000D02*
X162306000Y-115754000D01*
X168824000Y-111704000D02*
X164774000Y-115754000D01*
X169926000Y-111704000D02*
X168824000Y-111704000D01*
%TO.N,Net-(R12-Pad1)*%
X162306000Y-106860000D02*
X162306000Y-107654000D01*
X168824000Y-103604000D02*
X169926000Y-103604000D01*
X165569000Y-106860000D02*
X168824000Y-103604000D01*
X162306000Y-106860000D02*
X165569000Y-106860000D01*
X161033000Y-105587000D02*
X162306000Y-106860000D01*
X153455000Y-105587000D02*
X161033000Y-105587000D01*
X151430000Y-103562000D02*
X153455000Y-105587000D01*
X146304000Y-103562000D02*
X151430000Y-103562000D01*
%TO.N,Net-(R11-Pad1)*%
X164774000Y-103604000D02*
X162306000Y-103604000D01*
X168824000Y-99554000D02*
X164774000Y-103604000D01*
X169926000Y-99554000D02*
X168824000Y-99554000D01*
X160077000Y-101375000D02*
X162306000Y-103604000D01*
X147983000Y-101375000D02*
X160077000Y-101375000D01*
X146050000Y-99442000D02*
X147983000Y-101375000D01*
%TO.N,Net-(R10-Pad1)*%
X168824000Y-95504000D02*
X169926000Y-95504000D01*
X165569000Y-98759700D02*
X168824000Y-95504000D01*
X162306000Y-98759700D02*
X165569000Y-98759700D01*
X162306000Y-99554000D02*
X162306000Y-98759700D01*
X160963000Y-97417000D02*
X162306000Y-98759700D01*
X148075000Y-97417000D02*
X160963000Y-97417000D01*
X146050000Y-95392000D02*
X148075000Y-97417000D01*
%TO.N,Net-(R25-Pad2)*%
X155070000Y-95103800D02*
X162306000Y-95103800D01*
X151308000Y-91342000D02*
X155070000Y-95103800D01*
X146050000Y-91342000D02*
X151308000Y-91342000D01*
X162306000Y-95504000D02*
X162306000Y-95103800D01*
X168824000Y-91892000D02*
X169926000Y-91892000D01*
X165612000Y-95103800D02*
X168824000Y-91892000D01*
X162306000Y-95103800D02*
X165612000Y-95103800D01*
%TO.N,Net-(U3-O7)*%
X151946000Y-79898000D02*
X153924000Y-79898000D01*
X145079000Y-73031500D02*
X151946000Y-79898000D01*
X144605000Y-73031500D02*
X145079000Y-73031500D01*
X131983000Y-60410000D02*
X144605000Y-73031500D01*
X130882000Y-60410000D02*
X131983000Y-60410000D01*
X130882000Y-60410000D02*
X130881700Y-60410000D01*
%TO.N,Net-(R23-Pad2)*%
X161213000Y-81018700D02*
X162306000Y-79926000D01*
X151475000Y-81018700D02*
X161213000Y-81018700D01*
X146304000Y-75848000D02*
X151475000Y-81018700D01*
X164774000Y-79926000D02*
X162306000Y-79926000D01*
X168824000Y-75876000D02*
X164774000Y-79926000D01*
X169926000Y-75876000D02*
X168824000Y-75876000D01*
%TO.N,Net-(U3-O6)*%
X148638000Y-75848000D02*
X140820000Y-68030000D01*
X153924000Y-75848000D02*
X148638000Y-75848000D01*
%TO.N,Net-(R22-Pad2)*%
X160995000Y-73820000D02*
X162306000Y-75131200D01*
X148326000Y-73820000D02*
X160995000Y-73820000D01*
X146304000Y-71798000D02*
X148326000Y-73820000D01*
X162306000Y-75876000D02*
X162306000Y-75131200D01*
X168824000Y-72024000D02*
X169926000Y-72024000D01*
X165717000Y-75131200D02*
X168824000Y-72024000D01*
X162306000Y-75131200D02*
X165717000Y-75131200D01*
%TO.N,Net-(R21-Pad2)*%
X164774000Y-72024000D02*
X162306000Y-72024000D01*
X168824000Y-67974000D02*
X164774000Y-72024000D01*
X169926000Y-67974000D02*
X168824000Y-67974000D01*
X159356000Y-69074200D02*
X162306000Y-72024000D01*
X147630000Y-69074200D02*
X159356000Y-69074200D01*
X146304000Y-67748000D02*
X147630000Y-69074200D01*
%TO.N,Net-(R20-Pad2)*%
X160849000Y-65723000D02*
X162306000Y-67179700D01*
X148329000Y-65723000D02*
X160849000Y-65723000D01*
X146304000Y-63698000D02*
X148329000Y-65723000D01*
X165569000Y-67179700D02*
X162306000Y-67179700D01*
X168824000Y-63924000D02*
X165569000Y-67179700D01*
X169926000Y-63924000D02*
X168824000Y-63924000D01*
X162306000Y-67179700D02*
X162306000Y-67974000D01*
%TO.N,Net-(R19-Pad2)*%
X159356000Y-60974200D02*
X162306000Y-63924000D01*
X147630000Y-60974200D02*
X159356000Y-60974200D01*
X146304000Y-59648000D02*
X147630000Y-60974200D01*
X164774000Y-63924000D02*
X162306000Y-63924000D01*
X168824000Y-59874000D02*
X164774000Y-63924000D01*
X169926000Y-59874000D02*
X168824000Y-59874000D01*
%TO.N,Net-(R18-Pad2)*%
X162084000Y-59652500D02*
X162084000Y-59079700D01*
X162306000Y-59874000D02*
X162084000Y-59652500D01*
X160628000Y-57623000D02*
X162084000Y-59079700D01*
X148329000Y-57623000D02*
X160628000Y-57623000D01*
X146304000Y-55598000D02*
X148329000Y-57623000D01*
X165340000Y-55824000D02*
X162084000Y-59079700D01*
X169926000Y-55824000D02*
X165340000Y-55824000D01*
%TO.N,Net-(R1-Pad1)*%
X165569000Y-55029700D02*
X162306000Y-55029700D01*
X168824000Y-51774000D02*
X165569000Y-55029700D01*
X169926000Y-51774000D02*
X168824000Y-51774000D01*
X162306000Y-55029700D02*
X162306000Y-55824000D01*
X160150000Y-52874200D02*
X162306000Y-55029700D01*
X147630000Y-52874200D02*
X160150000Y-52874200D01*
X146304000Y-51548000D02*
X147630000Y-52874200D01*
%TO.N,Net-(J3-In)*%
X169926000Y-119804000D02*
X169926000Y-118702000D01*
X189515000Y-93726000D02*
X188839000Y-93726000D01*
X188839000Y-93726000D02*
X188163000Y-93726000D01*
X188839000Y-99789000D02*
X169926000Y-118702000D01*
X188839000Y-93726000D02*
X188839000Y-99789000D01*
%TO.N,/D7*%
X134560000Y-81514200D02*
X134711000Y-81514200D01*
X134560000Y-92478300D02*
X132087000Y-94950900D01*
X134560000Y-81514200D02*
X134560000Y-92478300D01*
X130882000Y-62950000D02*
X130882000Y-63500800D01*
X134560000Y-67591800D02*
X134560000Y-81514200D01*
X131019000Y-64051700D02*
X134560000Y-67591800D01*
X130882000Y-64051700D02*
X131019000Y-64051700D01*
X130882000Y-63500800D02*
X130882000Y-64051700D01*
X130881700Y-63500500D02*
X130881700Y-62950000D01*
X130882000Y-63500800D02*
X130881700Y-63500500D01*
%TO.N,/D0*%
X123261700Y-62950000D02*
X123262000Y-62950000D01*
X123008000Y-98002000D02*
X123008000Y-97451100D01*
X123262000Y-64051700D02*
X123262000Y-62950000D01*
X123490000Y-64051700D02*
X123262000Y-64051700D01*
X124371000Y-64932800D02*
X123490000Y-64051700D01*
X124371000Y-71025500D02*
X124371000Y-64932800D01*
X123557000Y-71840000D02*
X124371000Y-71025500D01*
X122930000Y-71840000D02*
X123557000Y-71840000D01*
X121748000Y-73022000D02*
X122930000Y-71840000D01*
X121748000Y-95778600D02*
X121748000Y-73022000D01*
X122870000Y-96900300D02*
X121748000Y-95778600D01*
X123008000Y-96900300D02*
X122870000Y-96900300D01*
X123008000Y-97451100D02*
X123008000Y-96900300D01*
X123007700Y-97451400D02*
X123007700Y-98002000D01*
X123008000Y-97451100D02*
X123007700Y-97451400D01*
%TO.N,/D1*%
X123261700Y-65490000D02*
X123262000Y-65490000D01*
X123008000Y-100542000D02*
X123008000Y-99991100D01*
X123262000Y-66591700D02*
X123262000Y-65490000D01*
X123033000Y-66591700D02*
X123262000Y-66591700D01*
X121320000Y-68305000D02*
X123033000Y-66591700D01*
X121320000Y-97890400D02*
X121320000Y-68305000D01*
X122870000Y-99440300D02*
X121320000Y-97890400D01*
X123008000Y-99440300D02*
X122870000Y-99440300D01*
X123008000Y-99991100D02*
X123008000Y-99440300D01*
X123007700Y-99991400D02*
X123007700Y-100542000D01*
X123008000Y-99991100D02*
X123007700Y-99991400D01*
%TO.N,/D3*%
X123261700Y-75650000D02*
X123262000Y-75650000D01*
X123008000Y-110702000D02*
X123008000Y-110151000D01*
X123262000Y-76751700D02*
X123262000Y-75650000D01*
X123399000Y-76751700D02*
X123262000Y-76751700D01*
X124777000Y-78128900D02*
X123399000Y-76751700D01*
X124777000Y-107955000D02*
X124777000Y-78128900D01*
X123132000Y-109600000D02*
X124777000Y-107955000D01*
X123008000Y-109600000D02*
X123132000Y-109600000D01*
X123008000Y-110151000D02*
X123008000Y-109600000D01*
X123007700Y-110151300D02*
X123007700Y-110702000D01*
X123008000Y-110151000D02*
X123007700Y-110151300D01*
%TO.N,/D2*%
X123261700Y-73110000D02*
X123262000Y-73110000D01*
X123008000Y-108162000D02*
X123008000Y-107611000D01*
X123262000Y-74211700D02*
X123262000Y-73110000D01*
X123033000Y-74211700D02*
X123262000Y-74211700D01*
X122150000Y-75095100D02*
X123033000Y-74211700D01*
X122150000Y-78643200D02*
X122150000Y-75095100D01*
X122967000Y-79460000D02*
X122150000Y-78643200D01*
X123593000Y-79460000D02*
X122967000Y-79460000D01*
X124368000Y-80235200D02*
X123593000Y-79460000D01*
X124368000Y-105837000D02*
X124368000Y-80235200D01*
X123145000Y-107060000D02*
X124368000Y-105837000D01*
X123008000Y-107060000D02*
X123145000Y-107060000D01*
X123008000Y-107611000D02*
X123008000Y-107060000D01*
X123007700Y-107611300D02*
X123007700Y-108162000D01*
X123008000Y-107611000D02*
X123007700Y-107611300D01*
%TO.N,/D6*%
X129780000Y-65490000D02*
X130881700Y-65490000D01*
X129780000Y-65261700D02*
X129780000Y-65490000D01*
X123517000Y-58998400D02*
X129780000Y-65261700D01*
X121176000Y-58998400D02*
X123517000Y-58998400D01*
X113652000Y-51474300D02*
X121176000Y-58998400D01*
X108467000Y-51474300D02*
X113652000Y-51474300D01*
X101018000Y-58923000D02*
X108467000Y-51474300D01*
X87827800Y-58923000D02*
X101018000Y-58923000D01*
X79637700Y-67113100D02*
X87827800Y-58923000D01*
X79637700Y-69612600D02*
X79637700Y-67113100D01*
X78774000Y-70476300D02*
X79637700Y-69612600D01*
X78486000Y-70476300D02*
X78774000Y-70476300D01*
X78486000Y-71628000D02*
X78486000Y-70476300D01*
X130628000Y-99440300D02*
X130628000Y-100542000D01*
X130490000Y-99440300D02*
X130628000Y-99440300D01*
X129498000Y-98448100D02*
X130490000Y-99440300D01*
X129498000Y-94967100D02*
X129498000Y-98448100D01*
X130273000Y-94192000D02*
X129498000Y-94967100D01*
X130966000Y-94192000D02*
X130273000Y-94192000D01*
X134100000Y-91058200D02*
X130966000Y-94192000D01*
X134100000Y-69582000D02*
X134100000Y-91058200D01*
X131110000Y-66591700D02*
X134100000Y-69582000D01*
X130882000Y-66591700D02*
X131110000Y-66591700D01*
X130882000Y-65490000D02*
X130882000Y-66591700D01*
X130881700Y-65490000D02*
X130882000Y-65490000D01*
X130627700Y-100542000D02*
X130628000Y-100542000D01*
%TO.N,/A2*%
X88138000Y-64773300D02*
X88138000Y-62733000D01*
X87884000Y-101346000D02*
X87884000Y-98806000D01*
X88138000Y-65273000D02*
X88138000Y-64773300D01*
X80981300Y-71930000D02*
X88138000Y-64773300D01*
X80981300Y-78409500D02*
X80981300Y-71930000D01*
X78754500Y-80636300D02*
X80981300Y-78409500D01*
X78486000Y-80636300D02*
X78754500Y-80636300D01*
X78486000Y-81788000D02*
X78486000Y-80636300D01*
X78486000Y-82939700D02*
X78486000Y-81788000D01*
X78734900Y-82939700D02*
X78486000Y-82939700D01*
X86444200Y-90649000D02*
X78734900Y-82939700D01*
X86444200Y-96492800D02*
X86444200Y-90649000D01*
X87655700Y-97704300D02*
X86444200Y-96492800D01*
X87884000Y-97704300D02*
X87655700Y-97704300D01*
X87884000Y-98806000D02*
X87884000Y-97704300D01*
%TO.N,/D4*%
X130881700Y-75650000D02*
X130882000Y-75650000D01*
X130628000Y-110702000D02*
X130628000Y-110151000D01*
X130882000Y-76751700D02*
X130882000Y-75650000D01*
X131110000Y-76751700D02*
X130882000Y-76751700D01*
X132003000Y-77644300D02*
X131110000Y-76751700D01*
X132003000Y-81339500D02*
X132003000Y-77644300D01*
X127718000Y-85624200D02*
X132003000Y-81339500D01*
X127718000Y-106828000D02*
X127718000Y-85624200D01*
X130490000Y-109600000D02*
X127718000Y-106828000D01*
X130628000Y-109600000D02*
X130490000Y-109600000D01*
X130628000Y-110151000D02*
X130628000Y-109600000D01*
X130627700Y-110151300D02*
X130627700Y-110702000D01*
X130628000Y-110151000D02*
X130627700Y-110151300D01*
%TO.N,/A4*%
X87884000Y-103886000D02*
X87884000Y-102784000D01*
X88089500Y-102784000D02*
X87884000Y-102784000D01*
X88987900Y-101886000D02*
X88089500Y-102784000D01*
X88987900Y-76857100D02*
X88987900Y-101886000D01*
X87030000Y-74899200D02*
X88987900Y-76857100D01*
X87030000Y-69885000D02*
X87030000Y-74899200D01*
X88000300Y-68914700D02*
X87030000Y-69885000D01*
X88138000Y-68914700D02*
X88000300Y-68914700D01*
X88138000Y-67813000D02*
X88138000Y-68914700D01*
X87655700Y-102784000D02*
X87884000Y-102784000D01*
X84413200Y-99541800D02*
X87655700Y-102784000D01*
X84413200Y-93659000D02*
X84413200Y-99541800D01*
X78773900Y-88019700D02*
X84413200Y-93659000D01*
X78486000Y-88019700D02*
X78773900Y-88019700D01*
X78486000Y-86868000D02*
X78486000Y-88019700D01*
%TO.N,/A5*%
X95758000Y-65273000D02*
X95758000Y-64721500D01*
X95758000Y-64721500D02*
X90030900Y-70448600D01*
X89935300Y-70353000D02*
X90030900Y-70448600D01*
X88138000Y-70353000D02*
X89935300Y-70353000D01*
X95504000Y-98806000D02*
X95504000Y-101346000D01*
X95758000Y-64721500D02*
X95758000Y-62733000D01*
X95504000Y-97704300D02*
X95504000Y-98806000D01*
X95275700Y-97704300D02*
X95504000Y-97704300D01*
X94349800Y-96778400D02*
X95275700Y-97704300D01*
X94349800Y-89630400D02*
X94349800Y-96778400D01*
X94635400Y-89344800D02*
X94349800Y-89630400D01*
X94635400Y-75053100D02*
X94635400Y-89344800D01*
X90030900Y-70448600D02*
X94635400Y-75053100D01*
X88985700Y-106426000D02*
X87884000Y-106426000D01*
X94065700Y-101346000D02*
X88985700Y-106426000D01*
X95504000Y-101346000D02*
X94065700Y-101346000D01*
X87884000Y-105324000D02*
X87884000Y-106426000D01*
X87655700Y-105324000D02*
X87884000Y-105324000D01*
X79637700Y-97306300D02*
X87655700Y-105324000D01*
X79637700Y-91423400D02*
X79637700Y-97306300D01*
X78774000Y-90559700D02*
X79637700Y-91423400D01*
X78486000Y-90559700D02*
X78774000Y-90559700D01*
X78486000Y-89408000D02*
X78486000Y-90559700D01*
%TO.N,/A0*%
X104100000Y-59028700D02*
X104100000Y-57927000D01*
X104238000Y-59028700D02*
X104100000Y-59028700D01*
X106057000Y-60848100D02*
X104238000Y-59028700D01*
X106057000Y-90179200D02*
X106057000Y-60848100D01*
X104120000Y-92116300D02*
X106057000Y-90179200D01*
X104120000Y-93218000D02*
X104120000Y-92116300D01*
%TO.N,/D5*%
X130628000Y-107060000D02*
X130628000Y-107611000D01*
X130490000Y-107060000D02*
X130628000Y-107060000D01*
X129087000Y-105658000D02*
X130490000Y-107060000D01*
X129087000Y-92713200D02*
X129087000Y-105658000D01*
X130228000Y-91572900D02*
X129087000Y-92713200D01*
X130228000Y-85414300D02*
X130228000Y-91572900D01*
X133468000Y-82173800D02*
X130228000Y-85414300D01*
X130628000Y-107611000D02*
X130628000Y-108162000D01*
X130627700Y-107611300D02*
X130627700Y-108162000D01*
X130628000Y-107611000D02*
X130627700Y-107611300D01*
X130882000Y-73110000D02*
X130882000Y-73660800D01*
X133468000Y-76569700D02*
X133468000Y-82173800D01*
X131110000Y-74211700D02*
X133468000Y-76569700D01*
X130882000Y-74211700D02*
X131110000Y-74211700D01*
X130882000Y-73660800D02*
X130882000Y-74211700D01*
X130881700Y-73660500D02*
X130881700Y-73110000D01*
X130882000Y-73660800D02*
X130881700Y-73660500D01*
%TO.N,/XOUT*%
X104120000Y-99736300D02*
X104120000Y-100838000D01*
X103982000Y-99736300D02*
X104120000Y-99736300D01*
X102579000Y-98333400D02*
X103982000Y-99736300D01*
X102579000Y-70560800D02*
X102579000Y-98333400D01*
X103783000Y-69357000D02*
X102579000Y-70560800D01*
X104392000Y-69357000D02*
X103783000Y-69357000D01*
X105251000Y-68498800D02*
X104392000Y-69357000D01*
X105251000Y-67657900D02*
X105251000Y-68498800D01*
X104242000Y-66648700D02*
X105251000Y-67657900D01*
X104100000Y-66648700D02*
X104242000Y-66648700D01*
X104100000Y-65547000D02*
X104100000Y-66648700D01*
%TO.N,/A1*%
X87884000Y-96266000D02*
X87884000Y-93726000D01*
X78486000Y-78096300D02*
X78486000Y-79248000D01*
X78754500Y-78096300D02*
X78486000Y-78096300D01*
X80202400Y-76648400D02*
X78754500Y-78096300D01*
X80202400Y-69092600D02*
X80202400Y-76648400D01*
X88000300Y-61294700D02*
X80202400Y-69092600D01*
X88138000Y-61294700D02*
X88000300Y-61294700D01*
X88138000Y-60193000D02*
X88138000Y-61294700D01*
%TO.N,/A7*%
X104100000Y-64108700D02*
X104100000Y-63007000D01*
X104328000Y-64108700D02*
X104100000Y-64108700D01*
X105654000Y-65434300D02*
X104328000Y-64108700D01*
X105654000Y-77635500D02*
X105654000Y-65434300D01*
X103018000Y-80271100D02*
X105654000Y-77635500D01*
X103018000Y-96232400D02*
X103018000Y-80271100D01*
X103982000Y-97196300D02*
X103018000Y-96232400D01*
X104120000Y-97196300D02*
X103982000Y-97196300D01*
X104120000Y-98298000D02*
X104120000Y-97196300D01*
%TO.N,GND*%
X75946000Y-71628000D02*
X75946000Y-69088000D01*
X75946000Y-97028000D02*
X75946000Y-94488000D01*
X75946000Y-104648000D02*
X75946000Y-102108000D01*
X75946000Y-89408000D02*
X75946000Y-86868000D01*
X75946000Y-107188000D02*
X75946000Y-104648000D01*
X75946000Y-91948000D02*
X75946000Y-89408000D01*
X75946000Y-102108000D02*
X75946000Y-99568000D01*
X75946000Y-61468000D02*
X75946000Y-58928000D01*
X75946000Y-79248000D02*
X75946000Y-76708000D01*
X75946000Y-86868000D02*
X75946000Y-84328000D01*
X104120000Y-109896000D02*
X104258000Y-109896000D01*
X104120000Y-110998000D02*
X104120000Y-109896000D01*
X75946000Y-94488000D02*
X75946000Y-91948000D01*
X75946000Y-64008000D02*
X75946000Y-61468000D01*
X75946000Y-112268000D02*
X75946000Y-109728000D01*
X75946000Y-69088000D02*
X75946000Y-66548000D01*
X75946000Y-117348000D02*
X75946000Y-114808000D01*
X75946000Y-58928000D02*
X75946000Y-56388000D01*
X104100000Y-76808700D02*
X104186000Y-76808700D01*
X104100000Y-75707000D02*
X104100000Y-76808700D01*
X75946000Y-114808000D02*
X75946000Y-112268000D01*
X93492000Y-79348700D02*
X93492000Y-88138000D01*
X88138000Y-73994700D02*
X93492000Y-79348700D01*
X88138000Y-72893000D02*
X88138000Y-73994700D01*
X75946000Y-66548000D02*
X75946000Y-64008000D01*
X75946000Y-99568000D02*
X75946000Y-97028000D01*
X75946000Y-76708000D02*
X75946000Y-74168000D01*
X75946000Y-74168000D02*
X75946000Y-71628000D01*
X75946000Y-84328000D02*
X75946000Y-81788000D01*
X75946000Y-81788000D02*
X75946000Y-79248000D01*
X123261700Y-57870000D02*
X123262000Y-57870000D01*
X123262000Y-91566000D02*
X123262000Y-81280800D01*
X123008000Y-91820300D02*
X123262000Y-91566000D01*
X123008000Y-92922000D02*
X123008000Y-91820300D01*
X180815000Y-92524300D02*
X180844000Y-92495600D01*
X180815000Y-93726000D02*
X180815000Y-92524300D01*
X127874000Y-53044000D02*
X126277600Y-54640100D01*
X126277600Y-54640100D02*
X127873700Y-53044000D01*
X123262000Y-56768300D02*
X123262000Y-57870000D01*
X124149000Y-56768300D02*
X123262000Y-56768300D01*
X126277600Y-54640100D02*
X124149000Y-56768300D01*
X128850000Y-87419700D02*
X128850000Y-87630800D01*
X179832000Y-58928000D02*
X180557200Y-58928000D01*
X180557200Y-58928000D02*
X180559000Y-58928000D01*
X180596000Y-58966800D02*
X180596000Y-78486000D01*
X180557200Y-58928000D02*
X180596000Y-58966800D01*
X180844000Y-79935700D02*
X180844000Y-92495600D01*
X180596000Y-79687700D02*
X180844000Y-79935700D01*
X180596000Y-78486000D02*
X180596000Y-79687700D01*
X123262000Y-80730300D02*
X123262000Y-81280800D01*
X123261700Y-80730000D02*
X123262000Y-80730300D01*
X123007700Y-92922000D02*
X123008000Y-92922000D01*
X128850000Y-87841700D02*
X128850000Y-87630800D01*
X128849700Y-87842000D02*
X128850000Y-87841700D01*
%TO.N,+5V*%
X114260000Y-56825300D02*
X114260000Y-57927000D01*
X113204000Y-55769300D02*
X114260000Y-56825300D01*
X113204000Y-52593000D02*
X113204000Y-55769300D01*
X114748000Y-91648300D02*
X114748000Y-88138000D01*
X114280000Y-92116300D02*
X114748000Y-91648300D01*
X114280000Y-93218000D02*
X114280000Y-92116300D01*
X95758000Y-56551300D02*
X95758000Y-57653000D01*
X95992000Y-56317300D02*
X95758000Y-56551300D01*
X95992000Y-52578000D02*
X95992000Y-56317300D01*
X114260000Y-59028700D02*
X114260000Y-57927000D01*
X114032000Y-59028700D02*
X114260000Y-59028700D01*
X113149000Y-59911400D02*
X114032000Y-59028700D01*
X113149000Y-86539000D02*
X113149000Y-59911400D01*
X114748000Y-88138000D02*
X113149000Y-86539000D01*
X95992000Y-92136300D02*
X95992000Y-88138000D01*
X95504000Y-92624300D02*
X95992000Y-92136300D01*
X95504000Y-93726000D02*
X95504000Y-92624300D01*
X131350000Y-89470100D02*
X131350000Y-87842000D01*
X131349700Y-89469800D02*
X131349700Y-87842000D01*
X131350000Y-89470100D02*
X131349700Y-89469800D01*
X130882000Y-56768300D02*
X130882000Y-57319100D01*
X130374000Y-56260300D02*
X130882000Y-56768300D01*
X130374000Y-53044000D02*
X130374000Y-56260300D01*
X130882000Y-57319100D02*
X130882000Y-57870000D01*
X130881700Y-57319400D02*
X130881700Y-57870000D01*
X130882000Y-57319100D02*
X130881700Y-57319400D01*
X131350000Y-91098300D02*
X131350000Y-89470100D01*
X130628000Y-91820300D02*
X131350000Y-91098300D01*
X130628000Y-92922000D02*
X130628000Y-91820300D01*
X130373700Y-53044000D02*
X130374000Y-53044000D01*
X130627700Y-92922000D02*
X130628000Y-92922000D01*
%TD*%
M02*
