%TF.GenerationSoftware,KiCad,Pcbnew,8.0.1*%
%TF.CreationDate,2024-06-17T09:25:23-04:00*%
%TF.ProjectId,lbporch,6c62706f-7263-4682-9e6b-696361645f70,rev?*%
%TF.SameCoordinates,Original*%
%TF.FileFunction,Soldermask,Top*%
%TF.FilePolarity,Negative*%
%FSLAX46Y46*%
G04 Gerber Fmt 4.6, Leading zero omitted, Abs format (unit mm)*
G04 Created by KiCad (PCBNEW 8.0.1) date 2024-06-17 09:25:23*
%MOMM*%
%LPD*%
G01*
G04 APERTURE LIST*
%ADD10R,1.600000X1.600000*%
%ADD11O,1.600000X1.600000*%
%ADD12R,0.850000X0.850000*%
%ADD13O,0.850000X0.850000*%
%ADD14C,1.600000*%
%ADD15O,2.304000X4.404000*%
%ADD16O,3.804000X2.004000*%
%ADD17R,1.700000X1.700000*%
%ADD18O,1.700000X1.700000*%
G04 APERTURE END LIST*
D10*
%TO.C,U2*%
X87884000Y-93726000D03*
D11*
X87884000Y-96266000D03*
X87884000Y-98806000D03*
X87884000Y-101346000D03*
X87884000Y-103886000D03*
X87884000Y-106426000D03*
X87884000Y-108966000D03*
X95504000Y-108966000D03*
X95504000Y-106426000D03*
X95504000Y-103886000D03*
X95504000Y-101346000D03*
X95504000Y-98806000D03*
X95504000Y-96266000D03*
X95504000Y-93726000D03*
%TD*%
D12*
%TO.C,J4*%
X179832000Y-58928000D03*
D13*
X179832000Y-59928000D03*
%TD*%
D10*
%TO.C,U3*%
X123261700Y-57870000D03*
D11*
X123261700Y-60410000D03*
X123261700Y-62950000D03*
X123261700Y-65490000D03*
X123261700Y-68030000D03*
X123261700Y-70570000D03*
X123261700Y-73110000D03*
X123261700Y-75650000D03*
X123261700Y-78190000D03*
X123261700Y-80730000D03*
X130881700Y-80730000D03*
X130881700Y-78190000D03*
X130881700Y-75650000D03*
X130881700Y-73110000D03*
X130881700Y-70570000D03*
X130881700Y-68030000D03*
X130881700Y-65490000D03*
X130881700Y-62950000D03*
X130881700Y-60410000D03*
X130881700Y-57870000D03*
%TD*%
D14*
%TO.C,C6*%
X93492000Y-52578000D03*
X95992000Y-52578000D03*
%TD*%
%TO.C,R24*%
X162306000Y-79926000D03*
D11*
X169926000Y-79926000D03*
%TD*%
D14*
%TO.C,R17*%
X162306000Y-51774000D03*
D11*
X169926000Y-51774000D03*
%TD*%
D14*
%TO.C,R32*%
X162306000Y-119804000D03*
D11*
X169926000Y-119804000D03*
%TD*%
D14*
%TO.C,R18*%
X162306000Y-55824000D03*
D11*
X169926000Y-55824000D03*
%TD*%
D14*
%TO.C,C4*%
X112248000Y-88138000D03*
X114748000Y-88138000D03*
%TD*%
D10*
%TO.C,U1*%
X88138000Y-57653000D03*
D11*
X88138000Y-60193000D03*
X88138000Y-62733000D03*
X88138000Y-65273000D03*
X88138000Y-67813000D03*
X88138000Y-70353000D03*
X88138000Y-72893000D03*
X95758000Y-72893000D03*
X95758000Y-70353000D03*
X95758000Y-67813000D03*
X95758000Y-65273000D03*
X95758000Y-62733000D03*
X95758000Y-60193000D03*
X95758000Y-57653000D03*
%TD*%
D14*
%TO.C,R26*%
X162306000Y-95504000D03*
D11*
X169926000Y-95504000D03*
%TD*%
D14*
%TO.C,R28*%
X162306000Y-103604000D03*
D11*
X169926000Y-103604000D03*
%TD*%
D14*
%TO.C,R1*%
X146304000Y-51548000D03*
D11*
X153924000Y-51548000D03*
%TD*%
D14*
%TO.C,R25*%
X162306000Y-91892000D03*
D11*
X169926000Y-91892000D03*
%TD*%
D14*
%TO.C,C3*%
X128849700Y-87842000D03*
X131349700Y-87842000D03*
%TD*%
%TO.C,R29*%
X162306000Y-107654000D03*
D11*
X169926000Y-107654000D03*
%TD*%
D14*
%TO.C,R13*%
X146304000Y-107612000D03*
D11*
X153924000Y-107612000D03*
%TD*%
D14*
%TO.C,R20*%
X162306000Y-63924000D03*
D11*
X169926000Y-63924000D03*
%TD*%
D10*
%TO.C,U5*%
X104100000Y-57927000D03*
D11*
X104100000Y-60467000D03*
X104100000Y-63007000D03*
X104100000Y-65547000D03*
X104100000Y-68087000D03*
X104100000Y-70627000D03*
X104100000Y-73167000D03*
X104100000Y-75707000D03*
X114260000Y-75707000D03*
X114260000Y-73167000D03*
X114260000Y-70627000D03*
X114260000Y-68087000D03*
X114260000Y-65547000D03*
X114260000Y-63007000D03*
X114260000Y-60467000D03*
X114260000Y-57927000D03*
%TD*%
D14*
%TO.C,R22*%
X162306000Y-72024000D03*
D11*
X169926000Y-72024000D03*
%TD*%
D14*
%TO.C,R31*%
X162306000Y-115754000D03*
D11*
X169926000Y-115754000D03*
%TD*%
D14*
%TO.C,R4*%
X146304000Y-63698000D03*
D11*
X153924000Y-63698000D03*
%TD*%
D15*
%TO.C,J3*%
X189515000Y-93726000D03*
D16*
X180815000Y-93726000D03*
%TD*%
D14*
%TO.C,R14*%
X146304000Y-111662000D03*
D11*
X153924000Y-111662000D03*
%TD*%
D14*
%TO.C,R16*%
X146304000Y-119762000D03*
D11*
X153924000Y-119762000D03*
%TD*%
D10*
%TO.C,U6*%
X104120000Y-93218000D03*
D11*
X104120000Y-95758000D03*
X104120000Y-98298000D03*
X104120000Y-100838000D03*
X104120000Y-103378000D03*
X104120000Y-105918000D03*
X104120000Y-108458000D03*
X104120000Y-110998000D03*
X114280000Y-110998000D03*
X114280000Y-108458000D03*
X114280000Y-105918000D03*
X114280000Y-103378000D03*
X114280000Y-100838000D03*
X114280000Y-98298000D03*
X114280000Y-95758000D03*
X114280000Y-93218000D03*
%TD*%
D14*
%TO.C,R10*%
X146050000Y-95392000D03*
D11*
X153670000Y-95392000D03*
%TD*%
D14*
%TO.C,R30*%
X162306000Y-111704000D03*
D11*
X169926000Y-111704000D03*
%TD*%
D14*
%TO.C,C2*%
X127873700Y-53044000D03*
X130373700Y-53044000D03*
%TD*%
%TO.C,R11*%
X146050000Y-99442000D03*
D11*
X153670000Y-99442000D03*
%TD*%
D14*
%TO.C,R12*%
X146304000Y-103562000D03*
D11*
X153924000Y-103562000D03*
%TD*%
D14*
%TO.C,R15*%
X146304000Y-115712000D03*
D11*
X153924000Y-115712000D03*
%TD*%
D10*
%TO.C,U4*%
X123007700Y-92922000D03*
D11*
X123007700Y-95462000D03*
X123007700Y-98002000D03*
X123007700Y-100542000D03*
X123007700Y-103082000D03*
X123007700Y-105622000D03*
X123007700Y-108162000D03*
X123007700Y-110702000D03*
X123007700Y-113242000D03*
X123007700Y-115782000D03*
X130627700Y-115782000D03*
X130627700Y-113242000D03*
X130627700Y-110702000D03*
X130627700Y-108162000D03*
X130627700Y-105622000D03*
X130627700Y-103082000D03*
X130627700Y-100542000D03*
X130627700Y-98002000D03*
X130627700Y-95462000D03*
X130627700Y-92922000D03*
%TD*%
D14*
%TO.C,R3*%
X146304000Y-59648000D03*
D11*
X153924000Y-59648000D03*
%TD*%
D14*
%TO.C,R6*%
X146304000Y-71798000D03*
D11*
X153924000Y-71798000D03*
%TD*%
D14*
%TO.C,R21*%
X162306000Y-67974000D03*
D11*
X169926000Y-67974000D03*
%TD*%
D14*
%TO.C,R8*%
X146304000Y-79898000D03*
D11*
X153924000Y-79898000D03*
%TD*%
D14*
%TO.C,R27*%
X162306000Y-99554000D03*
D11*
X169926000Y-99554000D03*
%TD*%
D14*
%TO.C,R19*%
X162306000Y-59874000D03*
D11*
X169926000Y-59874000D03*
%TD*%
D14*
%TO.C,C5*%
X93492000Y-88138000D03*
X95992000Y-88138000D03*
%TD*%
%TO.C,R2*%
X146304000Y-55598000D03*
D11*
X153924000Y-55598000D03*
%TD*%
D14*
%TO.C,R9*%
X146050000Y-91342000D03*
D11*
X153670000Y-91342000D03*
%TD*%
D14*
%TO.C,R23*%
X162306000Y-75876000D03*
D11*
X169926000Y-75876000D03*
%TD*%
D14*
%TO.C,R5*%
X146304000Y-67748000D03*
D11*
X153924000Y-67748000D03*
%TD*%
D14*
%TO.C,R7*%
X146304000Y-75848000D03*
D11*
X153924000Y-75848000D03*
%TD*%
D15*
%TO.C,J2*%
X189296000Y-78486000D03*
D16*
X180596000Y-78486000D03*
%TD*%
D14*
%TO.C,C1*%
X110704000Y-52593000D03*
X113204000Y-52593000D03*
%TD*%
D17*
%TO.C,J1*%
X78486000Y-56388000D03*
D18*
X75946000Y-56388000D03*
X78486000Y-58928000D03*
X75946000Y-58928000D03*
X78486000Y-61468000D03*
X75946000Y-61468000D03*
X78486000Y-64008000D03*
X75946000Y-64008000D03*
X78486000Y-66548000D03*
X75946000Y-66548000D03*
X78486000Y-69088000D03*
X75946000Y-69088000D03*
X78486000Y-71628000D03*
X75946000Y-71628000D03*
X78486000Y-74168000D03*
X75946000Y-74168000D03*
X78486000Y-76708000D03*
X75946000Y-76708000D03*
X78486000Y-79248000D03*
X75946000Y-79248000D03*
X78486000Y-81788000D03*
X75946000Y-81788000D03*
X78486000Y-84328000D03*
X75946000Y-84328000D03*
X78486000Y-86868000D03*
X75946000Y-86868000D03*
X78486000Y-89408000D03*
X75946000Y-89408000D03*
X78486000Y-91948000D03*
X75946000Y-91948000D03*
X78486000Y-94488000D03*
X75946000Y-94488000D03*
X78486000Y-97028000D03*
X75946000Y-97028000D03*
X78486000Y-99568000D03*
X75946000Y-99568000D03*
X78486000Y-102108000D03*
X75946000Y-102108000D03*
X78486000Y-104648000D03*
X75946000Y-104648000D03*
X78486000Y-107188000D03*
X75946000Y-107188000D03*
X78486000Y-109728000D03*
X75946000Y-109728000D03*
X78486000Y-112268000D03*
X75946000Y-112268000D03*
X78486000Y-114808000D03*
X75946000Y-114808000D03*
X78486000Y-117348000D03*
X75946000Y-117348000D03*
%TD*%
M02*
